<?xml version="1.0" encoding="UTF-8" standalone="no"?>
<!-- Generator: Adobe Illustrator 27.1.1, SVG Export Plug-In . SVG Version: 6.00 Build 0)  -->

<svg
   version="1.1"
   id="Layer_1"
   x="0px"
   y="0px"
   viewBox="0 0 2560.334 328.72647"
   xml:space="preserve"
   sodipodi:docname="Logo.svg"
   width="2560.334"
   height="328.72647"
   inkscape:version="1.1.2 (b8e25be8, 2022-02-05)"
   xmlns:inkscape="http://www.inkscape.org/namespaces/inkscape"
   xmlns:sodipodi="http://sodipodi.sourceforge.net/DTD/sodipodi-0.dtd"
   xmlns="http://www.w3.org/2000/svg"
   xmlns:svg="http://www.w3.org/2000/svg"><defs
   id="defs55" /><sodipodi:namedview
   id="namedview53"
   borderopacity="1"/>
<style
   type="text/css"
   id="style2">
	.st0{fill:transparent;}
	:not(.st0){fill: white;}
</style>
<g
   id="g50"
   transform="translate(-212.06875,-574.37747)">
	<path
   class="st0"
   d="m 333.46,903.1 c 35.03,0 70.06,0.01 105.09,-0.02 2.55,0 5.1,-0.25 7.64,-0.53 2.36,-0.25 3.79,-1.77 4.18,-4.01 0.36,-2.03 0.5,-4.12 0.5,-6.19 0,-65.88 0.01,-131.76 -0.1,-197.64 -0.02,-12.36 -1.62,-24.56 -5.31,-36.41 -8.79,-28.23 -26.16,-49.88 -51.02,-65.55 -19.83,-12.5 -41.57,-18.69 -65.08,-18.36 -10.29,0.14 -20.39,1.75 -30.23,4.72 -37.91,11.46 -64.62,35.28 -79.15,72.29 -5.79,14.77 -7.91,30.24 -7.91,46.05 0,62.68 0,125.36 0,188.05 0,1.6 -0.02,3.2 0.1,4.79 0.13,1.75 0.33,3.5 0.63,5.23 0.68,3.92 3.05,6.31 6.96,6.89 2.83,0.42 5.72,0.65 8.59,0.66 35.05,0.04 70.08,0.03 105.11,0.03 z m 1339.61,-12.54 c 1.2,0.13 2.29,0.33 3.38,0.34 10.08,0.05 20.15,0.07 30.23,0.09 0.64,0 1.28,-0.01 1.92,-0.04 2.42,-0.13 4.28,-1.28 5.51,-3.32 0.74,-1.22 1.35,-2.55 1.84,-3.89 2.79,-7.63 2.86,-15.34 0.32,-23.04 -1.1,-3.33 -2.36,-6.62 -3.71,-9.87 -2.81,-6.79 -5.74,-13.53 -8.6,-20.3 -2.12,-5.01 -3.95,-10.12 -4.87,-15.52 -1.19,-7 0.28,-13.37 4.71,-18.94 1.58,-1.99 3.32,-3.92 5.24,-5.58 2.89,-2.51 5.89,-4.94 9.06,-7.09 6.74,-4.58 13.53,-9.11 20.47,-13.38 13.61,-8.38 27.34,-16.58 41.03,-24.84 8.08,-4.88 16.06,-9.92 23.26,-16.07 3.27,-2.8 6.49,-5.72 9.33,-8.95 6.62,-7.51 7.49,-15.97 3.27,-24.97 -1.08,-2.31 -2.47,-4.48 -3.67,-6.73 -0.26,-0.5 -0.86,-1.05 0.03,-1.88 0.42,0.3 1,0.53 1.33,0.96 1.79,2.25 3.6,4.49 5.25,6.85 1.93,2.76 3.46,5.73 4.42,9 1.26,4.32 1.17,8.58 -0.91,12.59 -1.24,2.39 -2.73,4.72 -4.48,6.77 -4.47,5.25 -9.47,9.97 -15.22,13.84 -3.84,2.59 -7.69,5.18 -11.55,7.75 -11.58,7.71 -23.2,15.35 -34.73,23.14 -10.09,6.83 -19.33,14.73 -28.13,23.13 -1.27,1.21 -2.56,2.42 -3.71,3.75 -4.9,5.69 -6.18,12.14 -3.74,19.23 0.72,2.1 1.72,4.13 2.78,6.1 5.4,9.98 10.92,19.89 16.26,29.91 2.33,4.36 4.54,8.81 6.42,13.38 3.32,8.09 3.9,16.41 1.18,24.85 -0.27,0.84 -0.22,1.79 -0.34,2.85 1.2,0.09 2.14,0.22 3.09,0.22 11.04,0.01 22.07,0.01 33.11,0 0.96,0 1.92,-0.01 2.87,-0.12 4.8,-0.53 6.89,-2.32 7.63,-7.13 0.73,-4.75 1.07,-9.53 -1.14,-14.11 -0.83,-1.72 -1.39,-3.57 -2.03,-5.38 -3.5,-9.99 -8.04,-19.48 -13.69,-28.46 -1.96,-3.11 -3.8,-6.3 -5.55,-9.53 -2.22,-4.07 -4.2,-8.25 -5.5,-12.74 -1.96,-6.75 -1.01,-12.97 3.2,-18.62 1.05,-1.41 2.14,-2.79 3.33,-4.09 3.25,-3.54 6.79,-6.73 10.8,-9.44 18.68,-12.63 37.43,-25.15 55.45,-38.72 7.53,-5.67 14.81,-11.68 22.06,-17.71 2.18,-1.82 4.11,-4.05 5.75,-6.38 3.35,-4.78 3.9,-10.12 1.82,-15.53 -1.02,-2.65 -2.38,-5.27 -4.06,-7.56 -2.83,-3.86 -5.91,-7.56 -9.13,-11.1 -6.99,-7.71 -14.59,-14.79 -22.39,-21.68 -3.59,-3.17 -7.06,-6.5 -10.56,-9.77 -6.77,-6.32 -10.77,-14.15 -12.84,-23.11 -1.77,-7.65 -2.64,-15.43 -3.65,-23.19 -0.27,-2.06 -0.48,-4.13 -0.89,-6.16 -0.65,-3.18 -1.94,-4.3 -5.21,-4.61 -1.43,-0.14 -2.88,-0.06 -4.32,-0.06 -17.11,0.02 -34.22,0.13 -51.33,0.02 -6.23,-0.04 -7.32,1.89 -7.24,6.8 0.14,8.47 0.04,16.94 0.04,25.42 0,0.48 0,0.96 0.02,1.44 0.25,8.46 2.84,15.99 8.8,22.2 1.33,1.38 2.6,2.83 3.89,4.24 6.8,7.43 13.7,14.78 20.36,22.33 4.12,4.67 7.94,9.61 11.74,14.55 1.35,1.75 2.38,3.79 3.29,5.82 2.21,4.95 2,9.93 -0.18,14.87 -1.31,2.96 -3.15,5.55 -5.33,7.92 -4.36,4.72 -9.15,8.89 -14.66,12.28 -20.42,12.58 -40.8,25.21 -61.15,37.9 -5.02,3.13 -9.92,6.45 -14.73,9.88 -6.41,4.57 -12.11,9.93 -16.91,16.21 -0.56,0.73 -1.24,1.36 -2.44,2.66 0.25,-1.38 0.25,-2 0.47,-2.53 1.46,-3.58 3.53,-6.8 5.98,-9.78 2.97,-3.6 6.38,-6.73 10.1,-9.52 6.28,-4.69 12.56,-9.38 18.92,-13.94 10.93,-7.83 21.61,-15.96 31.9,-24.61 5.01,-4.22 9.88,-8.63 14.61,-13.15 2.17,-2.08 4.11,-4.49 5.73,-7.03 2.62,-4.12 3.05,-8.66 1.54,-13.36 -0.99,-3.09 -2.59,-5.83 -4.47,-8.44 -4.6,-6.39 -9.89,-12.18 -15.97,-17.16 -9.03,-7.4 -18.27,-14.52 -27.35,-21.86 -3.72,-3.01 -7.45,-6.07 -10.8,-9.48 -7.33,-7.45 -12.17,-16.31 -14.55,-26.56 -1.7,-7.31 -3.82,-14.52 -5.77,-21.77 -0.12,-0.46 -0.31,-0.9 -0.48,-1.35 -0.78,-2.15 -2.32,-3.44 -4.57,-3.72 -1.58,-0.19 -3.18,-0.25 -4.78,-0.25 -16.95,-0.01 -33.9,-0.01 -50.85,0.01 -1.59,0 -3.2,0.07 -4.76,0.36 -1.95,0.36 -2.69,1.32 -2.67,3.38 0.02,1.75 0.26,3.5 0.49,5.24 0.78,6.02 1.8,12.02 2.36,18.06 0.96,10.37 4.78,19.47 11.35,27.48 3.16,3.85 6.86,7.14 10.63,10.36 5.47,4.67 10.95,9.34 16.26,14.2 6.62,6.06 12.7,12.63 17.77,20.07 1.35,1.98 2.68,4 3.73,6.14 3.01,6.12 2.43,12.08 -1.3,17.73 -0.88,1.33 -1.96,2.52 -3.02,3.72 -5.55,6.24 -11.69,11.8 -18.69,16.4 -11.89,7.81 -23.74,15.7 -35.61,23.55 -12.97,8.58 -25.24,18.03 -36.38,28.9 -1.26,1.23 -2.52,2.47 -3.58,3.87 -4.27,5.64 -5.35,11.85 -3,18.56 0.58,1.65 1.37,3.24 2.2,4.78 5.32,9.84 10.74,19.63 16,29.5 2.48,4.65 4.96,9.32 6.97,14.18 3.47,8.36 4.27,16.99 1.43,25.78 -0.27,0.82 -0.29,1.72 -0.45,2.71 0.98,0.09 1.61,0.19 2.23,0.19 10.88,0.04 21.75,0.07 32.63,0.09 0.64,0 1.28,-0.01 1.92,-0.05 2.66,-0.18 4.59,-1.56 5.48,-3.99 0.71,-1.93 1.17,-3.99 1.41,-6.04 0.98,-8.05 -0.82,-15.59 -4.64,-22.64 -3.35,-6.18 -6.89,-12.26 -10.31,-18.4 -3.19,-5.72 -6.45,-11.41 -9.43,-17.25 -1.52,-2.97 -2.68,-6.16 -3.65,-9.35 -2.2,-7.25 -0.97,-13.98 4,-19.76 2.49,-2.9 5.15,-5.73 8.13,-8.11 5.87,-4.68 11.92,-9.16 18.07,-13.46 14.01,-9.81 28.22,-19.36 42.17,-29.25 7.17,-5.08 14.05,-10.57 20.89,-16.09 2.46,-1.98 4.63,-4.43 6.55,-6.96 3.37,-4.45 4.26,-9.58 3.02,-15.01 -0.79,-3.46 -2.38,-6.61 -4.29,-9.58 -1.3,-2.02 -2.7,-3.96 -3.97,-5.99 -0.24,-0.38 -0.1,-1.01 -0.17,-2.11 1,0.79 1.57,1.1 1.95,1.56 2.61,3.23 5.24,6.46 7.73,9.78 1.14,1.52 2.13,3.2 2.95,4.92 2.92,6.09 2.69,12.14 -0.94,17.82 -3.01,4.72 -6.47,9.12 -11.06,12.51 -3.73,2.75 -7.4,5.59 -11.1,8.39 -12.87,9.75 -25.78,19.46 -38.6,29.28 -5.97,4.57 -11.63,9.54 -16.74,15.08 -2.48,2.69 -4.85,5.55 -6.81,8.63 -3.11,4.87 -3.53,10.25 -1.45,15.64 1.08,2.81 2.47,5.56 4.1,8.1 3.36,5.25 6.92,10.37 10.49,15.48 4.58,6.55 9.39,12.95 13.84,19.58 2.75,4.1 5.27,8.4 7.43,12.84 3.36,6.93 4.46,14.29 2.98,21.95 -0.1,0.58 -0.06,1.22 -0.1,2.05 z m 299.83,-0.11 c 0.99,0.16 1.74,0.38 2.49,0.38 10.4,0.04 20.79,0.08 31.19,0.01 1.72,-0.01 3.49,-0.44 5.16,-0.94 2.98,-0.89 4.88,-2.94 5.67,-5.96 1,-3.8 1.1,-7.57 -0.27,-11.32 -5,-13.67 -10.46,-27.12 -17.79,-39.77 -3.12,-5.39 -5.91,-10.97 -8.81,-16.49 -3.92,-7.45 -2.98,-14.51 1.89,-21.14 3.52,-4.79 7.47,-9.16 12.4,-12.59 3.54,-2.46 6.97,-5.1 10.5,-7.58 16.74,-11.77 33.54,-23.45 50.22,-35.32 5.99,-4.26 11.71,-8.9 17.49,-13.45 2.91,-2.29 5.39,-5.01 7.23,-8.25 2.21,-3.89 3.04,-7.98 2.14,-12.46 -0.94,-4.66 -3.18,-8.67 -5.82,-12.51 -1.27,-1.84 -2.66,-3.6 -3.88,-5.47 -0.24,-0.37 0.03,-1.08 0.09,-2.07 0.89,0.63 1.48,0.89 1.86,1.34 3.91,4.65 7.82,9.29 11.64,14.02 1.2,1.48 2.24,3.13 3.11,4.82 2.26,4.35 2.46,8.89 0.63,13.44 -0.65,1.62 -1.5,3.19 -2.5,4.62 -4.03,5.8 -8.59,11.09 -14.19,15.5 -10.93,8.6 -21.78,17.31 -32.58,26.08 -8.46,6.87 -16.32,14.37 -23.36,22.7 -0.62,0.73 -1.25,1.46 -1.83,2.22 -5.88,7.76 -6.11,15.99 -0.63,23.99 1.17,1.71 2.46,3.35 3.75,4.98 8.64,10.9 17.34,21.76 25.94,32.69 2.96,3.77 5.89,7.58 8.5,11.59 4.83,7.39 7.55,15.48 7.15,24.44 -0.04,0.89 0.26,1.79 0.38,2.56 0.6,0.16 0.91,0.31 1.21,0.31 13.91,0.05 27.83,0.14 41.74,0.1 3.74,-0.01 5.52,-1.43 6.68,-5.02 1.34,-4.15 1.82,-8.42 1.23,-12.78 -0.63,-4.64 -1.92,-9.07 -4.13,-13.2 -3.1,-5.77 -6.28,-11.5 -9.46,-17.23 -3.18,-5.73 -6.49,-11.39 -9.6,-17.16 -2.51,-4.65 -4.58,-9.49 -5.68,-14.71 -1.11,-5.27 -0.25,-10.2 2.61,-14.71 1.19,-1.88 2.56,-3.7 4.14,-5.26 2.61,-2.58 5.26,-5.19 8.23,-7.32 9.2,-6.64 18.53,-13.1 27.87,-19.55 10.26,-7.09 20.66,-13.97 30.85,-21.16 7.84,-5.53 15.26,-11.63 22.16,-18.33 1.71,-1.66 3.38,-3.43 4.78,-5.35 3.98,-5.49 4.71,-11.46 1.87,-17.66 -1.12,-2.45 -2.56,-4.79 -4.12,-7 -3.87,-5.51 -8.51,-10.37 -13.19,-15.2 -7.02,-7.24 -14.64,-13.83 -22.22,-20.47 -3.24,-2.84 -6.49,-5.72 -9.41,-8.88 -5.7,-6.14 -9.05,-13.41 -10.11,-21.81 -1.08,-8.56 -2.5,-17.07 -3.76,-25.61 -0.66,-4.46 -3.14,-6.62 -7.31,-6.55 -10.23,0.17 -20.46,-0.05 -30.69,-0.1 -0.64,0 -1.28,0.02 -1.91,0.12 -2.13,0.32 -3.08,1.46 -3,3.59 0.02,0.63 0.17,1.26 0.26,1.9 0.76,5.86 1.72,11.71 2.22,17.59 1.22,14.48 7.03,26.76 17.33,36.93 2.27,2.24 4.71,4.33 7.17,6.36 9.88,8.15 19.31,16.8 27.84,26.36 2.43,2.73 4.72,5.67 6.6,8.79 4.23,7.06 4.13,14.27 -0.18,21.33 -2.86,4.68 -6.43,8.8 -10.93,11.96 -11.77,8.28 -23.62,16.44 -35.46,24.62 -0.58,0.4 -1.14,1.19 -2.31,0.6 1.05,-1.65 2.65,-2.63 4.03,-3.8 10.12,-8.62 19.73,-17.76 28.42,-27.82 5.42,-6.28 6.01,-13.35 1.68,-20.38 -4.13,-6.7 -8.94,-12.85 -15.33,-17.63 -12.67,-9.48 -25.32,-19 -37.93,-28.57 -3.69,-2.8 -7.38,-5.64 -10.8,-8.75 -7.57,-6.89 -13.24,-15.1 -16.75,-24.78 -2.67,-7.36 -5.56,-14.64 -8.35,-21.95 -0.17,-0.45 -0.37,-0.88 -0.56,-1.32 -1.37,-3.27 -3.91,-4.99 -7.36,-5.33 -1.58,-0.16 -3.19,-0.03 -4.79,-0.01 -6.87,0.06 -13.74,0.15 -20.62,0.2 -6.72,0.04 -13.44,-0.12 -20.15,0.13 -6.03,0.22 -7.12,1.6 -7.04,7.72 0.09,6.89 0.74,13.73 2.16,20.47 2.34,11.15 6.91,21.23 14.52,29.83 3.09,3.48 6.56,6.54 10.27,9.34 10.64,8.04 20.04,17.38 28.78,27.41 2.42,2.78 4.51,5.79 6.04,9.18 2.61,5.78 2.5,11.5 -0.48,17.07 -1.13,2.1 -2.5,4.11 -4.01,5.95 -3.35,4.1 -7.22,7.64 -11.62,10.66 -18.86,12.92 -37.74,25.82 -56.44,38.97 -6.66,4.68 -12.93,9.93 -19.2,15.14 -2.56,2.13 -4.84,4.68 -6.85,7.33 -3.44,4.53 -4.87,9.71 -3.46,15.37 0.69,2.78 1.43,5.6 2.64,8.17 2.38,5.05 5,10 7.72,14.89 3.34,6.01 6.99,11.84 10.27,17.88 2.2,4.06 4.23,8.26 5.88,12.57 2.93,7.68 3.42,15.55 0.81,23.49 -0.26,0.92 -0.34,1.86 -0.57,3.01 z m 575.97,-149.69 c 2.32,-0.96 4.37,-1.82 6.43,-2.66 6.81,-2.77 13.65,-5.47 20.42,-8.32 5.02,-2.11 9.84,-4.61 14.37,-7.66 2.94,-1.97 5.63,-4.22 7.84,-7 3.89,-4.88 5.03,-10.32 2.82,-16.2 -0.95,-2.52 -2.18,-5.02 -3.75,-7.19 -2.44,-3.35 -5.07,-6.61 -8,-9.53 -4.76,-4.73 -9.79,-9.19 -14.77,-13.69 -4.86,-4.4 -9.86,-8.65 -14.67,-13.1 -9.1,-8.41 -16.95,-17.81 -23.04,-28.67 -1.86,-3.32 -4.17,-6.46 -6.66,-9.36 -9.72,-11.32 -22.1,-17.9 -36.96,-19 -13.71,-1.01 -27.46,-1.45 -41.21,-1.83 -14.71,-0.41 -29.42,-0.46 -44.13,-0.65 -1.12,-0.01 -2.25,-0.01 -3.35,0.15 -1.88,0.27 -2.8,1.33 -2.81,3.26 -0.01,1.11 0.19,2.22 0.33,3.33 0.86,6.65 1.85,13.29 2.56,19.97 1.07,10.13 4.61,19.2 11.06,27.12 2.94,3.61 6.28,6.82 9.81,9.83 9.38,7.98 18.57,16.18 27.27,24.9 4.79,4.8 8.62,10.29 11.49,16.43 3.03,6.49 2.57,12.81 -1.69,18.58 -3.8,5.16 -8.1,9.91 -13.46,13.56 -3.57,2.43 -7.1,4.91 -10.67,7.34 -10.3,7.03 -20.68,13.95 -30.9,21.09 -11.54,8.06 -22.81,16.48 -33.53,25.62 -2.07,1.76 -4.18,3.5 -6.05,5.46 -6.39,6.67 -7.86,14.4 -4.56,23 0.68,1.78 1.61,3.48 2.54,5.15 5.65,10.21 11.34,20.39 16.98,30.61 2.55,4.62 4.84,9.36 6.44,14.42 2.23,7.06 2.48,14.11 0.39,21.24 -0.3,1.03 -0.46,2.11 -0.75,3.46 1.51,0.17 2.73,0.43 3.96,0.44 12,0.04 23.99,0.07 35.99,0 1.73,-0.01 3.48,-0.41 5.17,-0.83 1.65,-0.41 2.86,-1.58 3.39,-3.15 1.53,-4.6 2.45,-9.27 0.78,-14.06 -4.64,-13.3 -9.87,-26.33 -16.98,-38.55 -2.49,-4.28 -4.8,-8.67 -7.14,-13.03 -1.13,-2.11 -2.22,-4.25 -3.19,-6.44 -2.52,-5.64 -2.23,-11.22 0.79,-16.58 1.09,-1.93 2.43,-3.77 3.88,-5.45 7.06,-8.14 15.21,-15.08 24.11,-21.12 2.37,-1.61 4.91,-3.02 7.51,-4.23 4.69,-2.19 9.67,-3.37 14.88,-3.05 4.97,0.31 9.72,1.43 14.12,3.92 -0.94,3.83 -2.51,7.08 -4.94,9.92 -2.5,2.91 -5.01,5.82 -7.47,8.76 -2.15,2.58 -4.36,5.12 -6.32,7.84 -3.3,4.57 -4.78,9.7 -4.08,15.38 0.36,2.9 1.44,5.55 2.71,8.14 3.93,8.04 8.14,15.93 12.73,23.63 3.43,5.76 6.64,11.68 9.51,17.73 4.1,8.63 6.17,17.78 5.77,27.42 -0.04,1.06 0.13,2.13 0.22,3.44 1.51,0.13 2.76,0.32 4.01,0.32 12.8,0.03 25.59,0.07 38.39,0.02 5.11,-0.02 6.02,-1.21 5.71,-6.44 -0.43,-7.25 -2.15,-14.19 -4.79,-20.93 -2.34,-5.97 -5.36,-11.59 -8.48,-17.18 -4.83,-8.65 -9.6,-17.34 -14.37,-26.02 -0.77,-1.4 -1.52,-2.82 -2.14,-4.29 -3.23,-7.74 -2.38,-15.02 2.71,-21.7 1.64,-2.15 3.51,-4.16 5.46,-6.04 4.81,-4.68 9.76,-9.23 14.6,-13.88 7.03,-6.76 14.1,-13.48 21,-20.38 4.88,-4.94 5.07,-6.4 2.71,-13.27 z M 814.74,890.91 c 4.51,0 8.34,0.01 12.16,0 9.92,-0.02 19.83,-0.12 29.75,-0.05 3.34,0.02 5.42,-1.56 6.76,-4.38 0.48,-1 0.8,-2.09 1.09,-3.17 1.6,-5.95 1,-11.76 -1.48,-17.33 -2.08,-4.67 -4.35,-9.26 -6.66,-13.81 -5.36,-10.54 -10.81,-21.04 -16.18,-31.57 -1.3,-2.56 -2.56,-5.16 -3.58,-7.84 -1.8,-4.74 -1.63,-9.53 1.06,-13.84 3.73,-5.98 7.97,-11.61 13.86,-15.73 5.37,-3.76 10.76,-7.49 16.16,-11.21 13.95,-9.62 27.97,-19.15 41.85,-28.88 7.86,-5.51 15.28,-11.61 22.26,-18.22 2.33,-2.21 4.48,-4.57 6.02,-7.41 2.21,-4.09 2.98,-8.37 1.77,-12.96 -0.91,-3.46 -2.44,-6.62 -4.61,-9.41 -2.94,-3.78 -5.93,-7.55 -9.19,-11.06 -7.18,-7.74 -14.85,-15 -22.93,-21.81 -2.93,-2.47 -5.82,-5 -8.68,-7.57 -9.09,-8.16 -14.2,-18.24 -15.26,-30.51 -0.66,-7.63 -1.92,-15.22 -3.06,-22.8 -0.66,-4.41 -2.23,-5.6 -6.84,-5.63 -2.24,-0.01 -4.47,0.17 -6.71,0.16 -9.44,-0.02 -18.87,-0.08 -28.31,-0.14 -5.19,-0.03 -6.46,1.15 -5.91,6.15 0.88,7.94 1.71,15.9 3.03,23.77 1.87,11.17 6.81,20.92 14.93,28.92 2.27,2.24 4.73,4.31 7.21,6.32 10.32,8.39 20.02,17.41 28.94,27.29 5.33,5.9 8.4,12.72 9.42,20.57 0.7,5.39 -0.59,7.09 -5.9,7.23 -0.16,0 -0.32,0 -0.48,0 -11.83,-0.06 -23.66,-0.11 -35.49,-0.18 -1.12,-0.01 -2.25,0.04 -3.35,-0.13 -1.04,-0.15 -2.04,-0.55 -3.07,-0.84 0.08,-1.09 0.09,-1.89 0.2,-2.67 0.99,-6.89 -0.98,-13 -5.1,-18.44 -2.22,-2.93 -4.53,-5.82 -7.12,-8.41 -6.11,-6.1 -12.34,-12.08 -18.65,-17.97 -5.38,-5.02 -11.01,-9.76 -16.41,-14.76 -6.92,-6.4 -11.29,-14.21 -12.49,-23.67 -0.52,-4.12 -1.1,-8.24 -1.73,-12.34 -0.75,-4.9 -1.55,-9.78 -2.39,-14.67 -0.68,-3.97 -3.03,-5.91 -6.85,-5.89 -11.99,0.06 -23.99,-0.09 -35.98,-0.14 -0.8,0 -1.6,0.04 -2.38,0.18 -1.64,0.29 -2.42,1.27 -2.47,3.02 -0.01,0.48 0.02,0.96 0.07,1.43 0.71,6.83 1.2,13.7 2.19,20.49 1.89,12.98 6.98,24.57 16.23,34.05 2.89,2.96 6.1,5.66 9.39,8.17 8.67,6.63 16.64,14 23.85,22.17 4.03,4.57 7.57,9.52 10.44,14.9 3.8,7.12 3.08,13.81 -2.07,20.06 -0.41,0.49 -0.84,0.96 -1.27,1.44 -5.73,6.51 -12.05,12.34 -19.33,17.13 -13.89,9.14 -27.74,18.35 -41.55,27.61 -10.39,6.96 -20.04,14.85 -29.06,23.51 -1.27,1.22 -2.58,2.41 -3.71,3.75 -5.33,6.26 -6.72,13.27 -3.77,21.01 0.68,1.78 1.54,3.52 2.46,5.19 5.23,9.53 10.5,19.04 15.75,28.55 2.71,4.9 5.34,9.83 7.24,15.12 2.84,7.91 3.47,15.88 0.87,23.98 -0.29,0.89 -0.43,1.82 -0.7,2.96 1.32,0.11 2.4,0.28 3.48,0.28 12.32,0.06 24.63,0.1 36.95,0.13 0.96,0 1.93,-0.01 2.87,-0.16 2.77,-0.44 4.7,-1.95 5.5,-4.68 0.36,-1.22 0.56,-2.49 0.73,-3.75 0.79,-5.98 0.01,-11.72 -2.11,-17.4 -3.47,-9.33 -8.04,-18.09 -13.07,-26.65 -3.24,-5.51 -6.41,-11.07 -9.3,-16.77 -1.58,-3.11 -2.79,-6.47 -3.69,-9.84 -1.58,-5.86 -0.68,-11.49 3.05,-16.38 2.02,-2.65 4.3,-5.18 6.81,-7.37 4.09,-3.57 8.36,-6.97 12.75,-10.16 7.11,-5.17 14.49,-9.97 21.55,-15.22 3.94,-2.93 8.11,-4.15 12.94,-4.09 10.08,0.12 20.15,0.02 30.23,0.02 1.92,0 3.84,-0.01 5.76,0.09 0.72,0.04 1.43,0.38 2.54,0.7 -0.77,0.74 -1.16,1.22 -1.64,1.57 -6.88,4.94 -13.87,9.75 -20.64,14.84 -5.49,4.13 -10.84,8.46 -16.04,12.95 -2.39,2.07 -4.48,4.58 -6.31,7.17 -3.19,4.51 -4.17,9.56 -2.92,15.05 0.83,3.62 2.09,7.05 3.79,10.32 2.5,4.82 5.1,9.6 7.76,14.33 3.37,5.99 6.88,11.9 10.25,17.89 2.44,4.33 4.41,8.86 5.75,13.66 1.66,5.98 1.89,11.98 0.41,18.01 -0.41,1.73 -0.95,3.39 -1.64,5.77 z m 615.27,-295.04 c 0,0 0,0.01 0,0 -5.76,0.01 -11.52,0.01 -17.27,0.01 -0.8,0 -1.6,-0.05 -2.4,0.02 -3.04,0.26 -4.03,1.32 -3.74,4.31 0.7,7.15 1.24,14.34 2.33,21.44 2.57,16.69 10.38,30.39 24.07,40.55 0.51,0.38 1.03,0.76 1.54,1.14 11.06,8.32 20.7,18.09 29.18,28.99 1.95,2.51 3.78,5.19 5.23,8.02 3.37,6.56 2.74,12.97 -1.46,19.02 -0.55,0.79 -1.13,1.56 -1.79,2.25 -2.3,2.44 -4.61,4.88 -6.97,7.27 -5.09,5.16 -11.14,9.09 -17.11,13.09 -15.01,10.06 -30.02,20.11 -45.05,30.14 -9.24,6.17 -17.19,13.81 -24.7,21.92 -5.83,6.29 -6.9,13.47 -3.55,21.31 1.44,3.38 2.91,6.76 4.65,9.99 1.51,2.8 3.14,5.62 5.19,8.02 13.06,15.34 26.22,30.6 39.42,45.81 8.54,9.84 19.67,14.53 32.44,15.52 9.43,0.73 18.86,0.54 28.23,-0.91 10.68,-1.65 20.88,-4.76 30.13,-10.49 2.57,-1.59 5.06,-3.4 7.28,-5.43 7.21,-6.6 9.79,-14.82 7.64,-24.34 -0.84,-3.72 -2.05,-7.4 -3.54,-10.91 -2.68,-6.32 -5.74,-12.48 -8.54,-18.76 -1.43,-3.2 -2.77,-6.46 -3.91,-9.78 -2.49,-7.22 -1.19,-13.87 3.46,-19.87 3.74,-4.83 7.98,-9.1 13.05,-12.6 18.96,-13.06 37.92,-26.13 56.7,-39.44 7.03,-4.98 13.62,-10.61 20.34,-16.02 2.62,-2.11 4.87,-4.61 6.65,-7.51 3.02,-4.92 3.71,-10.12 1.96,-15.64 -1.13,-3.55 -2.97,-6.71 -5.19,-9.67 -4.23,-5.65 -8.99,-10.84 -14.17,-15.61 -8,-7.36 -16.14,-14.57 -24.3,-21.76 -10.2,-8.99 -15.97,-20.07 -16.97,-33.76 -0.53,-7.32 -1.81,-14.59 -2.88,-21.86 -0.47,-3.2 -1.91,-4.42 -5.16,-4.58 -2.23,-0.11 -4.47,0.11 -6.71,0.11 -9.44,0.02 -18.87,-0.02 -28.31,0.02 -5.66,0.02 -6.42,0.94 -5.69,6.52 0.91,6.97 1.83,13.94 2.74,20.91 1.72,13.18 7.05,24.33 17.39,33.12 9.5,8.08 18.59,16.63 27.73,25.12 3.15,2.93 5.99,6.22 8.8,9.49 2.72,3.17 4.89,6.72 6.35,10.66 2,5.41 1.68,10.7 -1.11,15.74 -1.15,2.08 -2.5,4.14 -4.13,5.86 -2.75,2.88 -5.61,5.73 -8.76,8.15 -6.09,4.66 -12.36,9.1 -18.67,13.47 -13.67,9.46 -27.5,18.71 -41.1,28.27 -6.27,4.41 -12.22,9.28 -18.23,14.05 -3.01,2.39 -5.63,5.22 -7.77,8.45 -2.86,4.32 -4.07,9.01 -2.96,14.14 0.5,2.33 1.04,4.69 1.9,6.91 1.39,3.57 3.1,7.01 4.59,10.54 1.62,3.82 3.3,7.63 4.62,11.56 0.64,1.91 0.74,4.08 0.67,6.12 -0.08,2.61 -1.6,4.51 -4,5.5 -1.31,0.54 -2.75,0.96 -4.16,1.02 -12.7,0.61 -24.02,-2.75 -33.33,-11.8 -7.91,-7.69 -12.81,-17.11 -15.65,-27.61 -1.52,-5.64 -0.75,-11.2 2.8,-16 3.99,-5.42 8.37,-10.5 14.01,-14.35 5.68,-3.88 11.33,-7.79 16.98,-11.71 13.79,-9.57 27.68,-19.01 41.33,-28.78 6.75,-4.84 13.14,-10.18 19.48,-15.55 2.4,-2.03 4.43,-4.62 6.22,-7.23 2.63,-3.85 3.3,-8.24 2.49,-12.85 -0.65,-3.7 -2.14,-7.08 -4.34,-10.04 -3.05,-4.09 -6.12,-8.25 -9.72,-11.84 -7.35,-7.33 -15.04,-14.34 -22.64,-21.42 -3.74,-3.49 -7.65,-6.8 -11.38,-10.3 -6.51,-6.11 -10.64,-13.49 -11.83,-22.44 -0.78,-5.86 -1.72,-11.7 -2.59,-17.55 -0.58,-3.95 -1.07,-7.92 -1.77,-11.85 -0.54,-3.04 -1.82,-4.05 -4.86,-4.29 -0.63,-0.05 -1.28,0.01 -1.92,0.01 -5.74,-0.01 -11.5,-0.01 -17.26,-0.01 z m 780.86,237.84 c 1.28,-0.08 2.22,-0.2 3.16,-0.2 9.76,-0.01 19.51,-0.05 29.27,0.02 3.67,0.03 7.34,0.37 11.01,0.5 5.52,0.2 9.76,2.73 13.03,7.04 5.12,6.76 10.06,13.64 14.1,21.12 1.21,2.24 2.27,4.59 3.16,6.98 2.28,6.1 3.13,12.37 1.85,18.84 -0.14,0.73 -0.02,1.5 -0.02,2.44 1.49,0.16 2.74,0.41 3.99,0.41 11.84,0.04 23.67,0.06 35.51,0.01 1.57,-0.01 3.17,-0.35 4.71,-0.71 2.48,-0.57 3.9,-2.35 4.06,-4.77 0.32,-4.81 0.18,-9.62 -2.36,-13.95 -8.74,-14.89 -17.47,-29.78 -27.61,-43.79 -2.81,-3.88 -5.48,-7.87 -8.07,-11.9 -5.18,-8.05 -4.79,-16.03 0.78,-23.69 4.05,-5.58 8.64,-10.7 14.21,-14.85 6.16,-4.58 12.37,-9.09 18.46,-13.76 8.75,-6.71 17.6,-13.32 26.06,-20.39 6.86,-5.73 13.21,-12.08 19.76,-18.18 2.26,-2.1 4.01,-4.56 5.06,-7.48 2.06,-5.74 0.8,-11.06 -2.32,-16.01 -3.93,-6.25 -8.42,-12.05 -14.21,-16.75 -3.1,-2.52 -6.1,-5.17 -9.23,-7.65 -9.14,-7.26 -18.31,-14.49 -27.48,-21.71 -10.08,-7.93 -17.4,-17.75 -20.94,-30.22 -2.09,-7.38 -4.26,-14.73 -6.4,-22.09 -0.31,-1.07 -0.62,-2.15 -1,-3.2 -0.84,-2.33 -2.55,-3.63 -4.99,-3.9 -1.27,-0.14 -2.55,-0.14 -3.83,-0.13 -2.72,0.02 -5.43,0.15 -8.15,0.14 -13.75,-0.04 -27.51,-0.11 -41.26,-0.17 -5.73,-0.02 -6.89,1.19 -7,7.05 -0.15,7.99 -0.16,15.99 -0.58,23.97 -0.53,10.11 2.47,18.9 9.08,26.49 1.89,2.17 3.95,4.18 5.88,6.32 7.18,7.95 14.4,15.86 21.47,23.9 2.32,2.63 4.3,5.56 6.33,8.43 1.01,1.43 1.91,2.96 2.67,4.54 3.67,7.63 3.01,14.89 -2.21,21.59 -1.46,1.88 -3.18,3.59 -4.96,5.18 -7.4,6.63 -15.28,12.64 -23.76,17.82 -7.64,4.67 -15.37,9.18 -23.05,13.78 -10.01,6 -20.04,11.96 -29.99,18.06 -10.55,6.47 -19.82,14.58 -28.78,23.05 -4.43,4.19 -6.47,9.39 -6.11,15.53 0.15,2.6 0.79,5.05 1.7,7.44 3.47,9.1 7,18.19 10.44,27.31 1.69,4.48 3.43,8.96 4.75,13.56 2.79,9.72 2.47,19.27 -2.33,28.41 -0.34,0.65 -0.48,1.41 -0.83,2.45 1.95,0.13 3.51,0.32 5.06,0.33 10.71,0.05 21.43,-0.06 32.14,0.15 4.91,0.1 7.81,-2.17 9.51,-6.47 0.41,-1.04 0.78,-2.1 1.1,-3.17 1.57,-5.33 1.54,-10.74 0.56,-16.14 -0.94,-5.21 -2.78,-10.17 -4.81,-15.04 -1.84,-4.42 -3.8,-8.8 -5.66,-13.22 -0.39,-1 -0.57,-2.07 -0.93,-3.32 z M 1075.15,638.51 c 0,-0.6 0.07,-1.22 -0.01,-1.83 -1.52,-11.24 -3.05,-22.49 -4.58,-33.73 -0.11,-0.79 -0.24,-1.58 -0.41,-2.36 -0.69,-3.18 -1.91,-4.36 -5.12,-4.78 -1.26,-0.16 -2.55,-0.13 -3.83,-0.12 -6.24,0.05 -12.47,0.17 -18.71,0.18 -24.15,0.02 -48.3,0.02 -72.46,0 -6.72,-0.01 -13.43,-0.15 -20.15,-0.16 -1.58,0 -3.2,0.16 -4.74,0.5 -1.83,0.4 -2.68,1.53 -2.71,3.45 -0.02,1.27 0.18,2.54 0.36,3.8 1.13,7.75 2.5,15.47 3.36,23.24 1.08,9.78 5.01,18.09 11.88,25.05 2.36,2.39 4.91,4.58 7.35,6.88 8.85,8.33 17.75,16.59 26.5,25.03 3.1,2.99 5.92,6.29 8.63,9.64 1.69,2.09 3.15,4.44 4.35,6.85 2.84,5.69 2.7,11.5 -0.41,17 -1.56,2.75 -3.55,5.33 -5.68,7.68 -4.73,5.24 -10.18,9.68 -16.07,13.59 -16.25,10.79 -32.42,21.69 -48.66,32.5 -9.38,6.24 -17.65,13.73 -25.3,21.96 -1.09,1.17 -2.17,2.36 -3.08,3.67 -3.17,4.57 -4.37,9.58 -2.79,15.01 0.62,2.13 1.44,4.24 2.48,6.2 5.55,10.44 11.26,20.8 16.78,31.25 2.46,4.65 4.88,9.36 6.88,14.22 3.25,7.93 3.8,16.11 1.2,24.4 -0.26,0.83 -0.17,1.78 -0.26,3.01 2.51,0.09 4.72,0.25 6.94,0.25 29.59,0.02 59.18,0.01 88.77,0.01 8.32,0 16.63,0.1 24.95,0.05 4.8,-0.03 6.61,-1.51 7.9,-6.03 1.29,-4.55 1.3,-9.16 0.43,-13.77 -1.08,-5.71 -3.62,-10.88 -5.84,-16.19 -2.22,-5.3 -5.8,-7.32 -11.56,-7.25 -19.99,0.24 -39.98,0.1 -59.98,0.09 -2.4,0 -4.8,-0.08 -7.2,-0.08 -3.51,0 -6.06,-1.41 -7.79,-4.57 -4.21,-7.71 -8.58,-15.34 -12.82,-23.04 -0.92,-1.67 -1.67,-3.46 -2.29,-5.26 -2.8,-8.11 -1.27,-15.45 4.29,-21.92 1.55,-1.81 3.33,-3.47 5.18,-4.97 8.57,-6.95 17.12,-13.92 25.82,-20.7 8.67,-6.75 18.52,-9.82 29.58,-8.94 3.65,0.29 7.34,0.15 11.02,0.22 3.2,0.07 5.83,-1.08 8.26,-3.2 8.78,-7.69 17.65,-15.28 26.52,-22.87 3.03,-2.6 6.18,-5.06 9.25,-7.61 2.21,-1.84 4.39,-3.71 6.53,-5.62 0.55,-0.49 1.23,-1.07 0.56,-2.31 -1.4,-0.06 -2.96,-0.17 -4.52,-0.17 -7.52,-0.02 -15.04,0.01 -22.55,-0.03 -1.37,-0.01 -2.9,0.41 -4.36,-1.18 0,-2.55 0.1,-5.41 -0.02,-8.26 -0.56,-13.88 -6.06,-25.32 -17.08,-33.96 -7.31,-5.73 -14.07,-12.08 -20.84,-18.42 -4.23,-3.96 -7.79,-8.46 -11.15,-13.14 -0.4,-0.56 -0.51,-1.32 -0.88,-2.34 2.2,0 3.95,0 5.7,0 18.71,0 37.43,0 56.14,0 3.84,0 7.68,-0.01 11.51,-0.11 1.55,-0.02 3.21,0.32 4.73,-0.81 z m 1509.82,-41.76 c 0.36,1.57 0.49,2.84 0.95,3.99 4.23,10.54 8.92,20.86 14.98,30.51 8.68,13.79 19.78,25.03 34.36,32.64 2.25,1.18 4.39,2.63 6.44,4.16 7.18,5.35 14.4,10.66 21.41,16.22 5.5,4.37 10.78,9.03 16.05,13.68 2.65,2.34 4.72,5.19 6.3,8.39 1.76,3.56 2.39,7.29 1.63,11.18 -0.56,2.85 -1.65,5.56 -3.49,7.82 -2.31,2.84 -4.65,5.73 -7.34,8.19 -6.96,6.36 -14.02,12.63 -21.23,18.7 -12.96,10.92 -26.08,21.65 -39.07,32.54 -3.55,2.98 -7.02,6.08 -10.23,9.42 -5.54,5.75 -6.59,12.56 -3.92,19.98 0.65,1.79 1.54,3.51 2.45,5.19 5.5,10.11 11.1,20.16 16.52,30.31 2.33,4.36 4.54,8.82 6.4,13.39 3.23,7.94 3.76,16.12 1.25,24.41 -0.27,0.88 -0.39,1.8 -0.65,3.04 1.67,0.15 3.05,0.38 4.44,0.38 11.99,0.03 23.99,0.04 35.98,0 1.42,0 2.87,-0.19 4.26,-0.5 2.03,-0.46 3.46,-1.81 3.96,-3.79 1.29,-5.15 2.04,-10.28 0.3,-15.56 -3.77,-11.42 -8.45,-22.4 -14.71,-32.71 -3.39,-5.6 -6.47,-11.39 -9.58,-17.16 -1.82,-3.38 -3.09,-6.99 -3.93,-10.77 -1.06,-4.81 -0.26,-9.29 2.38,-13.31 1.65,-2.51 3.7,-4.81 5.82,-6.96 2.13,-2.15 4.53,-4.05 6.89,-5.96 14.34,-11.59 29.66,-21.71 45.99,-30.28 6.79,-3.56 13.63,-7.06 20.36,-10.74 10.68,-5.84 20.79,-12.56 30.35,-20.11 3.02,-2.39 5.85,-4.97 8.04,-8.17 3.4,-4.97 4.94,-10.39 3.58,-16.36 -0.64,-2.78 -1.37,-5.63 -2.62,-8.17 -1.83,-3.71 -3.95,-7.32 -6.35,-10.69 -4.18,-5.85 -8.7,-11.46 -13.01,-17.21 -2.68,-3.58 -5.32,-7.2 -7.86,-10.88 -3.99,-5.79 -5.42,-12.26 -4.41,-19.16 1.2,-8.22 2.67,-16.39 4.04,-24.58 0.42,-2.52 1.03,-5.02 1.27,-7.55 0.26,-2.72 -0.71,-3.91 -3.33,-4.33 -1.41,-0.23 -2.86,-0.2 -4.3,-0.19 -2.4,0.01 -4.79,0.14 -7.19,0.13 -7.99,-0.03 -15.99,-0.1 -23.98,-0.16 -5.34,-0.04 -6.77,1.14 -7.71,6.36 -0.06,0.31 -0.12,0.63 -0.18,0.94 -1.29,8.04 -2.63,16.08 -3.83,24.14 -1.13,7.62 -0.24,14.96 3.35,21.9 2,3.87 4.54,7.33 7.47,10.53 7.69,8.39 14.32,17.6 20.94,26.83 2.67,3.72 4.29,7.82 5.31,12.21 0.12,0.5 -0.08,1.08 -0.2,2.32 -1.54,-1.62 -2.67,-2.7 -3.69,-3.88 -2.53,-2.9 -5.16,-5.66 -8.28,-7.96 -14.02,-10.35 -28.03,-20.71 -42.01,-31.11 -3.59,-2.67 -7.18,-5.37 -10.53,-8.31 -7.92,-6.94 -14.16,-15.16 -18.24,-24.94 -3.07,-7.37 -6.17,-14.74 -9.26,-22.1 -0.37,-0.88 -0.74,-1.77 -1.16,-2.63 -1.22,-2.51 -3.26,-3.91 -6.01,-4.18 -1.59,-0.15 -3.19,-0.11 -4.79,-0.1 -2.88,0.03 -5.75,0.15 -8.63,0.16 -8,0.02 -15.99,0.01 -23.99,0.01 -2.4,-0.03 -4.78,-0.04 -7.76,0.84 z M 568.38,890.67 c 1.19,0.09 2.13,0.23 3.07,0.23 10.55,0 21.11,-0.01 31.66,-0.03 2.72,0 5.44,0 8.15,-0.06 2.49,-0.05 4.28,-1.12 5,-3.64 1.72,-6.07 2.49,-12.17 1.02,-18.45 -1.33,-5.66 -3.69,-10.88 -6.48,-15.92 -4.18,-7.55 -8.47,-15.04 -12.61,-22.61 -2.52,-4.63 -4.99,-9.3 -7.22,-14.07 -3.67,-7.86 -2.7,-15.29 2.88,-21.93 5.15,-6.13 10.78,-11.82 17.47,-16.32 6.76,-4.55 13.58,-9.02 20.33,-13.59 10.72,-7.26 21.47,-14.48 32.08,-21.89 7.34,-5.13 14.24,-10.86 20.71,-17.07 1.96,-1.88 3.87,-3.84 5.51,-5.99 4.36,-5.75 4.94,-11.99 1.76,-18.48 -0.91,-1.86 -2,-3.66 -3.23,-5.31 -2.2,-2.94 -4.47,-5.85 -6.89,-8.61 -6.01,-6.86 -12.46,-13.3 -19.27,-19.37 -4.18,-3.72 -8.39,-7.41 -12.58,-11.12 -3.97,-3.51 -7.66,-7.28 -10.64,-11.66 -1.08,-1.6 -3.8,-2.95 -2.53,-5.13 0.99,-1.69 3.55,-0.75 5.39,-0.76 12.15,-0.06 24.31,-0.01 36.46,-0.05 1.36,0 2.88,0.45 4.02,-0.74 0,-0.53 0.06,-1.02 -0.01,-1.49 -1.66,-12.03 -3.3,-24.06 -5.02,-36.08 -0.46,-3.23 -1.81,-4.48 -5.06,-4.7 -2.38,-0.16 -4.79,0.05 -7.19,0.05 -36.46,0.01 -72.92,0.01 -109.38,0 -2.56,0 -5.11,-0.17 -7.67,-0.15 -3.83,0.03 -7.68,-0.03 -11.49,0.3 -3.09,0.27 -4.15,1.84 -3.92,4.87 0.06,0.79 0.29,1.57 0.41,2.36 1.44,9.31 2.9,18.62 4.31,27.94 0.99,6.54 3.1,8.33 9.92,8.31 10.07,-0.03 20.15,-0.05 30.22,-0.06 1.44,0 2.89,0.16 4.31,0.03 3.84,-0.33 6.84,1.11 9.26,4.03 0.81,0.98 1.79,1.83 2.68,2.75 11.15,11.45 22.36,22.86 33.43,34.39 4.54,4.72 8.86,9.66 13.14,14.61 1.45,1.67 2.66,3.62 3.65,5.6 2.77,5.56 2.58,11.15 -0.61,16.48 -1.22,2.03 -2.8,3.9 -4.45,5.61 -8.5,8.75 -17.97,16.35 -28.13,23.08 -10.26,6.8 -20.64,13.42 -30.96,20.12 -10.9,7.08 -20.92,15.25 -30.11,24.44 -1.47,1.47 -3.02,2.88 -4.31,4.5 -4.15,5.23 -5.49,11.12 -3.48,17.56 0.71,2.27 1.67,4.5 2.8,6.6 5.3,9.85 10.7,19.64 16.08,29.45 2.77,5.05 5.49,10.1 7.37,15.57 2.62,7.62 3.21,15.28 0.82,23.06 -0.29,1.02 -0.42,2.11 -0.67,3.34 z m 648.38,-0.03 c 2.84,0.11 5.06,0.26 7.28,0.27 32.14,0.04 64.28,0.06 96.42,0.09 4.64,0 9.28,0.05 13.91,-0.02 4.67,-0.07 6.76,-1.65 7.89,-6.1 0.82,-3.25 1.31,-6.57 0.95,-9.97 -0.88,-8.28 -4.21,-15.69 -8.08,-22.9 -1.39,-2.59 -3.76,-3.84 -6.64,-4.14 -0.95,-0.1 -1.92,-0.09 -2.87,-0.09 -19.83,0.02 -39.65,0.04 -59.48,0.05 -1.92,0 -3.84,-0.01 -5.75,-0.14 -2.55,-0.18 -4.48,-1.31 -5.73,-3.7 -5.06,-9.61 -10.32,-19.12 -15.28,-28.78 -3.57,-6.96 -2.6,-13.68 2.27,-19.72 5.33,-6.61 11.18,-12.73 18.28,-17.53 4.5,-3.05 8.95,-6.17 13.51,-9.13 14.36,-9.31 28.51,-18.91 42.02,-29.43 5.93,-4.61 11.69,-9.43 17.46,-14.25 1.83,-1.53 3.59,-3.21 5.11,-5.05 4.32,-5.24 5.4,-11.16 2.87,-17.5 -1,-2.5 -2.38,-4.89 -3.89,-7.12 -3.96,-5.84 -8.6,-11.15 -13.66,-16.05 -6.32,-6.11 -12.82,-12.03 -19.28,-18 -3.99,-3.69 -8.17,-7.19 -12.02,-11.01 -5.6,-5.56 -9.04,-12.31 -10.15,-20.19 -0.89,-6.33 -1.86,-12.64 -2.77,-18.97 -0.48,-3.32 -0.77,-6.67 -1.36,-9.97 -0.74,-4.12 -2.3,-5.36 -6.49,-5.59 -0.48,-0.03 -0.96,-0.02 -1.44,-0.01 -11.19,0.36 -22.37,0.35 -33.56,0.01 -0.95,-0.03 -1.93,0 -2.87,0.16 -2.68,0.46 -3.86,1.92 -3.81,4.64 0.01,0.63 0.16,1.26 0.24,1.9 0.79,6.34 1.57,12.68 2.38,19.02 1.69,13.28 6.86,24.88 16.65,34.2 2.2,2.09 4.57,4 6.93,5.9 9,7.21 17.55,14.92 25.22,23.53 3.39,3.8 6.5,7.9 9.41,12.09 2.82,4.05 3.9,8.7 3.3,13.68 -0.54,4.46 -2.57,8.21 -5.46,11.51 -4.75,5.43 -9.96,10.39 -15.9,14.51 -3.28,2.28 -6.6,4.5 -9.93,6.71 -10.93,7.24 -21.91,14.39 -32.78,21.71 -11.96,8.06 -23.06,17.21 -33.4,27.26 -6.86,6.67 -8.48,14.45 -4.64,23.21 2.5,5.7 5.25,11.3 8.23,16.77 3.9,7.15 8.25,14.06 12.16,21.21 1.98,3.62 3.66,7.46 5.06,11.35 2.49,6.95 2.61,14.08 0.74,21.23 -0.31,1.21 -0.58,2.43 -1.05,4.35 z m 641.53,-0.02 c 0.94,0.14 1.41,0.27 1.88,0.27 12.8,0.01 25.59,0.02 38.39,0 1.11,0 2.24,-0.11 3.34,-0.3 3.2,-0.55 5.1,-2.48 5.73,-5.65 0.18,-0.94 0.27,-1.9 0.35,-2.85 0.59,-6.81 -0.32,-13.35 -3.05,-19.68 -3.37,-7.79 -7.3,-15.28 -11.6,-22.59 -2.75,-4.69 -5.58,-9.34 -8.12,-14.14 -1.79,-3.38 -3.33,-6.92 -4.66,-10.5 -3.03,-8.2 -1.7,-15.72 4.04,-22.38 3.66,-4.25 7.64,-8.14 12.33,-11.31 19.47,-13.17 38.99,-26.28 57.85,-40.32 6.66,-4.96 13.11,-10.24 19.47,-15.58 2.29,-1.93 4.32,-4.3 6.02,-6.77 3.38,-4.91 4.07,-10.41 2,-16.01 -1.04,-2.82 -2.43,-5.62 -4.21,-8.02 -3.04,-4.1 -6.36,-8.02 -9.85,-11.75 -6.99,-7.48 -14.56,-14.39 -22.37,-21.01 -2.93,-2.48 -5.88,-4.94 -8.69,-7.56 -7.46,-6.94 -12.59,-15.27 -14.44,-25.4 -0.63,-3.45 -0.88,-6.97 -1.34,-10.46 -0.74,-5.71 -1.42,-11.42 -2.29,-17.11 -0.73,-4.81 -2.13,-5.85 -7.08,-5.8 -0.16,0 -0.32,0.02 -0.48,0.02 -11.36,0.03 -22.71,0.1 -34.07,0.08 -5.57,-0.01 -6.69,0.99 -6.08,6.33 0.86,7.46 1.73,14.92 2.87,22.34 2.22,14.37 9.01,26.12 20.6,35.07 3.29,2.54 6.48,5.22 9.5,8.07 5.58,5.27 11.07,10.64 16.46,16.1 2.92,2.95 5.61,6.13 8.31,9.29 1.24,1.45 2.34,3.05 3.34,4.68 4.31,7.1 4.27,14.21 -0.19,21.24 -0.77,1.21 -1.59,2.41 -2.51,3.51 -3.39,4.07 -7.05,7.85 -11.48,10.82 -2.92,1.96 -5.79,4 -8.68,6 -16.18,11.18 -32.38,22.34 -48.54,33.55 -7.1,4.93 -14.01,10.12 -20.22,16.15 -2.51,2.44 -4.83,5.12 -6.89,7.95 -3.21,4.41 -3.8,9.45 -2.31,14.63 0.79,2.75 1.78,5.49 3.08,8.04 3.04,5.98 6.27,11.87 9.53,17.73 3.03,5.45 6.24,10.79 9.28,16.24 2.5,4.48 4.57,9.15 5.83,14.15 1.27,5.01 1.86,10.06 0.71,15.18 -0.53,2.5 -1.12,4.97 -1.76,7.75 z"
   id="path4" />
	<path
   d="m 333.46,903.1 c -35.03,0 -70.06,0.02 -105.09,-0.03 -2.87,0 -5.75,-0.24 -8.59,-0.66 -3.91,-0.58 -6.28,-2.97 -6.96,-6.89 -0.3,-1.73 -0.5,-3.48 -0.63,-5.23 -0.12,-1.59 -0.1,-3.2 -0.1,-4.79 0,-62.68 0,-125.36 0,-188.05 0,-15.8 2.12,-31.28 7.91,-46.05 14.53,-37.01 41.24,-60.84 79.15,-72.29 9.84,-2.97 19.94,-4.58 30.23,-4.72 23.5,-0.33 45.25,5.86 65.08,18.36 24.85,15.67 42.23,37.33 51.02,65.55 3.69,11.85 5.29,24.05 5.31,36.41 0.1,65.88 0.09,131.76 0.1,197.64 0,2.07 -0.14,4.16 -0.5,6.19 -0.4,2.24 -1.83,3.76 -4.18,4.01 -2.54,0.27 -5.09,0.53 -7.64,0.53 -35.05,0.03 -70.08,0.02 -105.11,0.02 z M 262.97,732.94 c 2.86,1.16 4.96,0.42 6.6,-1.67 0.78,-0.99 1.38,-2.15 1.93,-3.3 2.83,-5.91 5.72,-11.79 8.41,-17.76 3.29,-7.31 7.03,-14.35 11.76,-20.84 11.41,-15.65 26.54,-25.61 45.49,-29.74 5.15,-1.12 10.27,-2.34 15.26,-4.09 6.62,-2.32 11.3,0.26 14.98,5.31 1.8,2.47 1.39,4.35 -1.1,6.1 -0.39,0.27 -0.82,0.5 -1.23,0.74 -7.38,4.15 -14.76,8.23 -22.77,11.18 -14.58,5.36 -26.06,14.71 -34.13,28.1 -3.82,6.34 -6.46,13.17 -8.75,20.18 -1.63,5 -3.45,9.96 -5.51,14.8 -2.57,6.02 -5.48,11.9 -8.22,17.85 -0.31,0.68 -0.52,1.41 -0.93,2.56 4.53,0.06 8.63,0.12 12.74,0.17 0.8,0.01 1.6,0.01 2.39,-0.05 1.38,-0.12 2.42,-0.84 3.01,-2.07 0.41,-0.86 0.74,-1.77 0.98,-2.7 2.13,-8.03 4.16,-16.08 6.36,-24.09 1.39,-5.08 2.73,-10.21 4.6,-15.11 7.51,-19.63 20.88,-33.8 40.26,-42.11 4.72,-2.02 9.32,-4.15 13.4,-7.35 2.61,-2.04 5.73,-2.9 9.04,-2.43 3.95,0.57 7.84,1.43 11.81,3.02 -0.78,1.19 -1.4,2.29 -2.16,3.28 -5.67,7.45 -12.48,13.64 -20.31,18.81 -4.8,3.16 -9.49,6.53 -13.92,10.18 -7.02,5.77 -12.25,12.95 -15.92,21.32 -6.18,14.09 -11.07,28.6 -14.51,43.59 -2.44,10.62 -5.35,21.04 -10.88,30.59 -2,3.45 -2.34,7.45 -2.47,11.77 2.68,0.02 5.05,0.03 7.43,0.05 3.68,0.02 7.36,0.01 11.03,0.07 2.5,0.04 4.34,-0.9 5.31,-3.27 0.36,-0.89 0.68,-1.79 0.98,-2.7 1.63,-5.05 2.64,-10.23 2.76,-15.52 0.13,-5.75 0.02,-11.51 -0.02,-17.26 -0.05,-6.71 -0.13,-13.4 0.77,-20.1 2.26,-16.76 8.68,-31.64 19.53,-44.61 5.57,-6.66 11.99,-12.41 19.01,-17.5 4.03,-2.92 7.9,-6.02 10.78,-10.14 5.47,-7.83 13.62,-11.08 22.79,-13.55 -0.07,1.15 0.03,1.94 -0.18,2.65 -0.62,2.15 -1.24,4.3 -2.07,6.37 -4.95,12.39 -12.52,22.97 -22.35,31.95 -4.14,3.78 -8.12,7.71 -11.64,12.07 -7.41,9.17 -12.31,19.47 -13.31,31.3 -0.58,6.84 -0.59,13.73 -0.65,20.6 -0.07,7.35 0.4,14.7 -0.47,22.03 -0.72,6.04 -2.68,11.55 -6.91,15.99 -1.83,1.92 -2.36,4.01 -2.35,6.51 0.05,11.35 0.01,22.7 0.04,34.06 0,1.09 0.23,2.17 0.35,3.24 4.96,-0.21 6.36,-0.92 8.45,-4.42 3.62,-6.04 6.84,-12.28 9.44,-18.84 5.49,-13.86 7.21,-28.1 4.38,-42.8 -1.49,-7.71 -2.26,-15.47 -2.23,-23.34 0.09,-19.77 6.33,-37.36 18.61,-52.77 5.21,-6.54 9.72,-13.47 13.62,-20.83 6.8,-12.85 13.56,-25.73 20.43,-38.55 1.85,-3.45 1.8,-6.51 -0.31,-9.89 -9.86,-15.77 -22.71,-28.4 -38.92,-37.58 -1.39,-0.78 -2.84,-1.46 -4.32,-2.07 -3.94,-1.62 -7.56,-0.88 -10.74,1.83 -1.57,1.34 -3.03,2.85 -4.36,4.43 -2.34,2.77 -5.23,4.64 -8.6,5.87 -5.92,2.16 -12.02,3.19 -18.32,3.17 -8.07,-0.02 -15.87,-1.74 -23.66,-3.52 -7.16,-1.63 -14.23,-3.67 -21.39,-5.3 -9.29,-2.11 -18.66,1.9 -24.03,10.04 -0.07,0.1 0.01,0.31 0.02,0.46 0.31,0.06 0.63,0.19 0.93,0.16 0.79,-0.08 1.58,-0.2 2.37,-0.35 7.11,-1.36 14.24,-1.72 21.47,-1.04 8.14,0.77 16.13,2.29 24.14,3.82 4.08,0.78 8.17,1.56 12.29,2.04 6.08,0.71 12.11,0.43 18.06,-1.29 2.37,-0.69 4.79,-1.59 7.54,-1.14 0.32,2.85 -0.15,5.32 -0.87,7.77 -1.05,3.6 -3.46,5.65 -7.1,6.3 -1.89,0.34 -3.79,0.58 -5.69,0.84 -8.74,1.16 -17.48,1.81 -26.3,0.73 -6.24,-0.77 -12.47,-0.11 -18.62,1 -14.04,2.53 -25.66,9.43 -35.33,19.82 -7.84,8.43 -15.73,16.81 -23.6,25.22 -2.08,2.22 -4.12,4.46 -6.2,6.68 -1.95,2.07 -2.98,4.45 -2.92,7.36 0.09,4.15 -0.02,8.31 0.01,12.47 0,0.56 0.27,1.11 0.51,2.02 1.12,-0.68 1.94,-1.11 2.68,-1.64 6.37,-4.63 12,-10.06 17.22,-15.93 6.06,-6.83 11.41,-14.21 16.68,-21.64 1.94,-2.74 3.87,-5.5 6.01,-8.08 8.04,-9.72 17.95,-16.73 30.1,-20.44 6.79,-2.07 13.75,-2.72 20.82,-2.95 5.1,-0.16 10.2,-0.66 15.28,-1.18 4.13,-0.42 8.23,-1.17 12.36,-1.65 2.76,-0.32 4.14,0.59 5.32,3.08 1.08,2.28 1,4.69 0.56,7.05 -0.52,2.83 -2.06,4.93 -4.94,5.96 -8.14,2.93 -16.36,5.34 -25,6.43 -21.64,2.73 -38.14,13.23 -47.94,33.07 -4.73,9.58 -11.51,17.22 -20.04,23.45 -2.84,2.08 -5.76,4.03 -8.62,6.08 -0.46,0.33 -1.17,0.64 -0.77,1.71 4.35,0.89 9.02,-0.45 13.67,0.85 0.29,3.13 0.55,6.1 0.81,9.05 z m 164.75,-76.05 c -0.55,0.51 -0.92,0.69 -0.95,0.91 -0.3,1.89 -0.62,3.78 -0.79,5.68 -0.77,8.8 -2.26,17.43 -6.05,25.52 -3.34,7.14 -7.65,13.68 -12.66,19.73 -12.88,15.55 -18.78,33.53 -18.96,53.58 -0.08,8.5 0.75,16.91 1.66,25.34 0.93,8.58 1.67,17.19 1.98,25.81 0.19,5.4 -0.33,10.87 -0.96,16.26 -0.72,6.18 -1.94,12.31 -2.89,18.47 -0.14,0.88 -0.02,1.8 -0.02,2.9 1.7,0.26 3.24,0.5 4.93,0.76 0.72,3.89 0.28,7.72 0.36,11.52 0.07,3.68 -0.01,7.36 0.02,11.03 0.04,3.8 -0.18,7.61 0.19,11.71 4.53,0.54 8.82,0.31 13.09,0.26 4.41,-0.05 8.85,0.46 13.54,-0.43 0,-1.83 0.07,-3.4 -0.01,-4.97 -0.24,-4.63 -0.51,-9.26 -0.81,-13.88 -1.02,-15.63 -1.86,-31.28 -3.15,-46.89 -1.04,-12.62 -3.52,-25.02 -7.99,-36.91 -6.23,-16.56 -6.68,-33.37 -2.77,-50.45 2.26,-9.88 6.12,-19.16 10.51,-28.24 4.46,-9.23 7.93,-18.83 10.91,-28.64 1.91,-6.25 1.12,-12.48 0.82,-19.07 z m -90.91,164.35 c -0.75,-0.37 -1.13,-0.71 -1.52,-0.73 -11.83,-0.5 -23.65,-0.46 -35.48,0.16 -2.66,0.14 -4.95,1.23 -6.91,2.98 -1.55,1.38 -3.03,2.84 -4.5,4.31 -18.01,17.95 -36.01,35.9 -54,53.85 -0.91,0.9 -1.82,1.8 -2.67,2.76 -0.49,0.56 -1.22,1.1 -0.63,2.29 1.44,0.05 3,0.12 4.56,0.14 8.79,0.11 17.62,-0.26 26.36,0.46 8.98,0.74 15.91,-2.01 21.43,-9.02 2.67,-3.38 5.61,-6.56 8.58,-9.69 13.73,-14.52 27.52,-28.99 41.27,-43.48 1.16,-1.24 2.24,-2.57 3.51,-4.03 z m -40.07,-46.91 c -0.7,-0.24 -0.98,-0.42 -1.27,-0.43 -11.83,-0.01 -23.66,0.02 -35.49,-0.03 -2.92,-0.01 -5.26,1.02 -7.28,3.05 -2.59,2.61 -5.23,5.17 -7.83,7.77 -5.65,5.65 -11.24,11.36 -16.96,16.95 -2.1,2.05 -3.04,4.33 -2.89,7.26 0.14,2.87 -0.07,5.75 -0.08,8.62 -0.03,9.91 -0.04,19.82 -0.04,29.73 0,0.78 0.04,1.63 1.12,1.76 4.6,-4.16 68.41,-71.49 70.72,-74.68 z m 19.06,112.6 c 1.83,0 2.62,0 3.41,0 11.64,0 23.29,-0.09 34.93,0.06 3.15,0.04 5.43,-0.97 7.53,-3.27 5.7,-6.23 11.59,-12.3 17.39,-18.45 0.51,-0.54 1.28,-1.01 0.96,-2.28 -0.62,-0.11 -1.35,-0.34 -2.08,-0.35 -11.48,-0.02 -22.97,0.02 -34.45,-0.05 -2.75,-0.02 -4.86,0.97 -6.77,2.9 -6.29,6.34 -12.66,12.59 -18.99,18.9 -0.51,0.52 -0.9,1.17 -1.93,2.54 z M 436.22,774.29 c 0,-5.26 0,-10.52 0,-15.79 0,-13.26 0.01,-26.52 -0.04,-39.79 0,-0.76 0.66,-1.98 -0.83,-2.29 -8.69,17.85 -8.79,43.16 0.87,57.87 z M 225.55,734.83 c -0.15,0.85 -0.35,1.46 -0.35,2.06 0,7.33 0.02,14.67 0.07,22 0,0.24 0.32,0.48 0.68,0.99 0.46,-0.35 0.98,-0.65 1.37,-1.06 7.03,-7.4 14.04,-14.82 21.04,-22.25 0.37,-0.39 0.51,-0.99 0.8,-1.59 -4.01,-0.56 -17.97,-0.65 -23.61,-0.15 z m 92.6,-142.57 c 8.33,6.83 28.49,10.72 39.74,5.55 -6.37,-0.52 -13.04,-0.76 -19.62,-1.68 -6.76,-0.95 -13.42,-2.55 -20.12,-3.87 z"
   id="path6" />
	<path
   d="m 1673.07,890.56 c 0.04,-0.83 0,-1.46 0.11,-2.07 1.47,-7.65 0.38,-15.02 -2.98,-21.95 -2.16,-4.44 -4.68,-8.74 -7.43,-12.84 -4.45,-6.64 -9.26,-13.03 -13.84,-19.58 -3.57,-5.11 -7.13,-10.23 -10.49,-15.48 -1.62,-2.54 -3.01,-5.29 -4.1,-8.1 -2.08,-5.38 -1.66,-10.77 1.45,-15.64 1.97,-3.07 4.33,-5.94 6.81,-8.63 5.1,-5.54 10.77,-10.5 16.74,-15.08 12.82,-9.82 25.73,-19.53 38.6,-29.28 3.7,-2.8 7.36,-5.64 11.1,-8.39 4.59,-3.38 8.05,-7.78 11.06,-12.51 3.63,-5.69 3.86,-11.74 0.94,-17.82 -0.82,-1.72 -1.81,-3.4 -2.95,-4.92 -2.49,-3.32 -5.12,-6.54 -7.73,-9.78 -0.37,-0.46 -0.94,-0.77 -1.95,-1.56 0.08,1.1 -0.07,1.73 0.17,2.11 1.27,2.03 2.67,3.98 3.97,5.99 1.91,2.97 3.5,6.12 4.29,9.58 1.24,5.44 0.35,10.56 -3.02,15.01 -1.92,2.53 -4.09,4.97 -6.55,6.96 -6.84,5.52 -13.73,11.01 -20.89,16.09 -13.96,9.89 -28.16,19.43 -42.17,29.25 -6.15,4.31 -12.2,8.79 -18.07,13.46 -2.98,2.37 -5.64,5.21 -8.13,8.11 -4.97,5.78 -6.2,12.51 -4,19.76 0.97,3.2 2.14,6.38 3.65,9.35 2.98,5.83 6.24,11.52 9.43,17.25 3.42,6.14 6.96,12.22 10.31,18.4 3.83,7.06 5.62,14.6 4.64,22.64 -0.25,2.04 -0.7,4.11 -1.41,6.04 -0.9,2.43 -2.82,3.82 -5.48,3.99 -0.64,0.04 -1.28,0.05 -1.92,0.05 -10.88,-0.03 -21.75,-0.05 -32.63,-0.09 -0.63,0 -1.26,-0.11 -2.23,-0.19 0.16,-1 0.19,-1.9 0.45,-2.71 2.84,-8.78 2.04,-17.41 -1.43,-25.78 -2.01,-4.86 -4.49,-9.53 -6.97,-14.18 -5.27,-9.87 -10.68,-19.66 -16,-29.5 -0.83,-1.54 -1.62,-3.13 -2.2,-4.78 -2.34,-6.71 -1.26,-12.92 3,-18.56 1.05,-1.39 2.32,-2.64 3.58,-3.87 11.14,-10.87 23.41,-20.32 36.38,-28.9 11.87,-7.85 23.71,-15.74 35.61,-23.55 7.01,-4.6 13.15,-10.16 18.69,-16.4 1.06,-1.19 2.14,-2.39 3.02,-3.72 3.73,-5.65 4.31,-11.61 1.3,-17.73 -1.05,-2.14 -2.38,-4.16 -3.73,-6.14 -5.07,-7.44 -11.15,-14.01 -17.77,-20.07 -5.31,-4.86 -10.79,-9.53 -16.26,-14.2 -3.78,-3.23 -7.48,-6.51 -10.63,-10.36 -6.57,-8.01 -10.39,-17.11 -11.35,-27.48 -0.56,-6.04 -1.58,-12.04 -2.36,-18.06 -0.23,-1.74 -0.46,-3.49 -0.49,-5.24 -0.03,-2.06 0.72,-3.02 2.67,-3.38 1.56,-0.29 3.17,-0.36 4.76,-0.36 16.95,-0.03 33.9,-0.03 50.85,-0.01 1.59,0 3.2,0.06 4.78,0.25 2.26,0.28 3.79,1.57 4.57,3.72 0.16,0.45 0.35,0.89 0.48,1.35 1.94,7.25 4.07,14.46 5.77,21.77 2.38,10.25 7.22,19.12 14.55,26.56 3.35,3.41 7.08,6.47 10.8,9.48 9.07,7.34 18.32,14.47 27.35,21.86 6.08,4.98 11.37,10.77 15.97,17.16 1.88,2.6 3.48,5.35 4.47,8.44 1.51,4.7 1.08,9.24 -1.54,13.36 -1.62,2.54 -3.56,4.95 -5.73,7.03 -4.74,4.53 -9.6,8.94 -14.61,13.15 -10.28,8.65 -20.97,16.78 -31.9,24.61 -6.37,4.56 -12.65,9.25 -18.92,13.94 -3.72,2.78 -7.14,5.92 -10.1,9.52 -2.46,2.98 -4.53,6.19 -5.98,9.78 -0.22,0.53 -0.22,1.15 -0.47,2.53 1.19,-1.29 1.88,-1.93 2.44,-2.66 4.8,-6.28 10.5,-11.63 16.91,-16.21 4.81,-3.43 9.72,-6.75 14.73,-9.88 20.35,-12.69 40.73,-25.32 61.15,-37.9 5.5,-3.39 10.3,-7.56 14.66,-12.28 2.18,-2.36 4.03,-4.95 5.33,-7.92 2.18,-4.94 2.39,-9.92 0.18,-14.87 -0.91,-2.03 -1.94,-4.07 -3.29,-5.82 -3.8,-4.94 -7.62,-9.88 -11.74,-14.55 -6.66,-7.56 -13.56,-14.9 -20.36,-22.33 -1.3,-1.42 -2.56,-2.86 -3.89,-4.24 -5.96,-6.21 -8.55,-13.74 -8.8,-22.2 -0.01,-0.48 -0.02,-0.96 -0.02,-1.44 0,-8.47 0.1,-16.95 -0.04,-25.42 -0.08,-4.91 1.01,-6.84 7.24,-6.8 17.11,0.11 34.22,0 51.33,-0.02 1.44,0 2.89,-0.08 4.32,0.06 3.27,0.31 4.56,1.44 5.21,4.61 0.41,2.03 0.63,4.11 0.89,6.16 1.01,7.76 1.88,15.54 3.65,23.19 2.07,8.96 6.06,16.79 12.84,23.11 3.51,3.27 6.97,6.6 10.56,9.77 7.8,6.89 15.4,13.97 22.39,21.68 3.22,3.55 6.29,7.25 9.13,11.1 1.68,2.29 3.04,4.9 4.06,7.56 2.07,5.41 1.53,10.75 -1.82,15.53 -1.64,2.33 -3.57,4.57 -5.75,6.38 -7.25,6.03 -14.53,12.04 -22.06,17.71 -18.01,13.57 -36.77,26.09 -55.45,38.72 -4.01,2.71 -7.55,5.9 -10.8,9.44 -1.19,1.29 -2.28,2.68 -3.33,4.09 -4.21,5.66 -5.17,11.88 -3.2,18.62 1.3,4.48 3.29,8.66 5.5,12.74 1.76,3.23 3.6,6.42 5.55,9.53 5.64,8.97 10.18,18.46 13.69,28.46 0.63,1.81 1.2,3.66 2.03,5.38 2.21,4.58 1.87,9.36 1.14,14.11 -0.74,4.81 -2.83,6.59 -7.63,7.13 -0.95,0.11 -1.92,0.12 -2.87,0.12 -11.04,0.01 -22.07,0.01 -33.11,0 -0.94,0 -1.89,-0.13 -3.09,-0.22 0.12,-1.06 0.07,-2.01 0.34,-2.85 2.73,-8.44 2.14,-16.76 -1.18,-24.85 -1.87,-4.57 -4.09,-9.02 -6.42,-13.38 -5.34,-10.01 -10.87,-19.92 -16.26,-29.91 -1.06,-1.96 -2.06,-3.99 -2.78,-6.1 -2.44,-7.09 -1.16,-13.55 3.74,-19.23 1.15,-1.33 2.44,-2.54 3.71,-3.75 8.8,-8.41 18.04,-16.31 28.13,-23.13 11.52,-7.79 23.15,-15.43 34.73,-23.14 3.86,-2.57 7.7,-5.16 11.55,-7.75 5.74,-3.87 10.74,-8.59 15.22,-13.84 1.74,-2.05 3.24,-4.38 4.48,-6.77 2.08,-4 2.17,-8.26 0.91,-12.59 -0.95,-3.26 -2.49,-6.24 -4.42,-9 -1.64,-2.36 -3.46,-4.6 -5.25,-6.85 -0.34,-0.42 -0.91,-0.66 -1.33,-0.96 -0.89,0.84 -0.3,1.39 -0.03,1.88 1.2,2.26 2.58,4.42 3.67,6.73 4.22,8.99 3.35,17.46 -3.27,24.97 -2.84,3.22 -6.06,6.15 -9.33,8.95 -7.19,6.15 -15.17,11.19 -23.26,16.07 -13.69,8.26 -27.42,16.46 -41.03,24.84 -6.94,4.27 -13.73,8.8 -20.47,13.38 -3.17,2.15 -6.16,4.58 -9.06,7.09 -1.92,1.66 -3.66,3.59 -5.24,5.58 -4.43,5.57 -5.9,11.94 -4.71,18.94 0.92,5.39 2.75,10.5 4.87,15.52 2.86,6.77 5.79,13.51 8.6,20.3 1.34,3.24 2.6,6.53 3.71,9.87 2.55,7.7 2.47,15.4 -0.32,23.04 -0.49,1.34 -1.1,2.66 -1.84,3.89 -1.23,2.04 -3.09,3.19 -5.51,3.32 -0.64,0.03 -1.28,0.04 -1.92,0.04 -10.08,-0.02 -20.15,-0.04 -30.23,-0.09 -1.1,0.01 -2.18,-0.2 -3.39,-0.32 z"
   id="path8" />
	<path
   d="m 1972.9,890.45 c 0.22,-1.15 0.31,-2.1 0.6,-2.98 2.61,-7.93 2.11,-15.81 -0.81,-23.49 -1.64,-4.31 -3.68,-8.51 -5.88,-12.57 -3.27,-6.04 -6.93,-11.87 -10.27,-17.88 -2.71,-4.89 -5.34,-9.84 -7.72,-14.89 -1.21,-2.57 -1.95,-5.4 -2.64,-8.17 -1.41,-5.66 0.02,-10.84 3.46,-15.37 2.01,-2.66 4.3,-5.21 6.85,-7.33 6.26,-5.21 12.54,-10.46 19.2,-15.14 18.7,-13.15 37.58,-26.05 56.44,-38.97 4.4,-3.01 8.27,-6.56 11.62,-10.66 1.51,-1.84 2.88,-3.85 4.01,-5.95 2.99,-5.57 3.09,-11.29 0.48,-17.07 -1.53,-3.39 -3.62,-6.4 -6.04,-9.18 -8.73,-10.04 -18.14,-19.37 -28.78,-27.41 -3.71,-2.8 -7.18,-5.86 -10.27,-9.34 -7.62,-8.59 -12.18,-18.68 -14.52,-29.83 -1.42,-6.75 -2.07,-13.58 -2.16,-20.47 -0.08,-6.12 1.01,-7.5 7.04,-7.72 6.71,-0.25 13.43,-0.08 20.15,-0.13 6.87,-0.05 13.74,-0.13 20.62,-0.2 1.6,-0.01 3.21,-0.14 4.79,0.01 3.45,0.34 5.99,2.06 7.36,5.33 0.19,0.44 0.39,0.88 0.56,1.32 2.79,7.31 5.68,14.59 8.35,21.95 3.51,9.68 9.18,17.89 16.75,24.78 3.42,3.11 7.11,5.95 10.8,8.75 12.61,9.57 25.26,19.09 37.93,28.57 6.39,4.78 11.2,10.94 15.33,17.63 4.33,7.02 3.74,14.1 -1.68,20.38 -8.69,10.07 -18.3,19.2 -28.42,27.82 -1.38,1.18 -2.98,2.16 -4.03,3.8 1.17,0.58 1.73,-0.2 2.31,-0.6 11.84,-8.18 23.69,-16.34 35.46,-24.62 4.5,-3.16 8.06,-7.28 10.93,-11.96 4.31,-7.05 4.41,-14.27 0.18,-21.33 -1.88,-3.13 -4.16,-6.07 -6.6,-8.79 -8.53,-9.56 -17.96,-18.21 -27.84,-26.36 -2.46,-2.03 -4.9,-4.12 -7.17,-6.36 -10.3,-10.17 -16.11,-22.44 -17.33,-36.93 -0.5,-5.88 -1.46,-11.73 -2.22,-17.59 -0.08,-0.63 -0.23,-1.26 -0.26,-1.9 -0.08,-2.12 0.87,-3.26 3,-3.59 0.63,-0.1 1.27,-0.12 1.91,-0.12 10.23,0.05 20.46,0.26 30.69,0.1 4.16,-0.07 6.65,2.09 7.31,6.55 1.26,8.53 2.68,17.05 3.76,25.61 1.06,8.39 4.41,15.66 10.11,21.81 2.93,3.16 6.17,6.03 9.41,8.88 7.58,6.64 15.19,13.23 22.22,20.47 4.68,4.82 9.32,9.69 13.19,15.2 1.55,2.21 3,4.55 4.12,7 2.84,6.2 2.11,12.17 -1.87,17.66 -1.4,1.93 -3.07,3.69 -4.78,5.35 -6.89,6.7 -14.31,12.8 -22.16,18.33 -10.19,7.19 -20.59,14.07 -30.85,21.16 -9.34,6.45 -18.67,12.92 -27.87,19.55 -2.96,2.14 -5.62,4.74 -8.23,7.32 -1.58,1.56 -2.95,3.38 -4.14,5.26 -2.86,4.52 -3.72,9.44 -2.61,14.71 1.09,5.22 3.17,10.06 5.68,14.71 3.11,5.77 6.41,11.43 9.6,17.16 3.18,5.73 6.36,11.46 9.46,17.23 2.22,4.12 3.51,8.56 4.13,13.2 0.59,4.36 0.11,8.63 -1.23,12.78 -1.16,3.6 -2.94,5.01 -6.68,5.02 -13.91,0.04 -27.83,-0.05 -41.74,-0.1 -0.31,0 -0.61,-0.15 -1.21,-0.31 -0.12,-0.77 -0.42,-1.67 -0.38,-2.56 0.4,-8.97 -2.32,-17.05 -7.15,-24.44 -2.62,-4.01 -5.54,-7.83 -8.5,-11.59 -8.6,-10.93 -17.29,-21.79 -25.94,-32.69 -1.29,-1.63 -2.58,-3.26 -3.75,-4.98 -5.48,-8 -5.25,-16.23 0.63,-23.99 0.58,-0.76 1.21,-1.49 1.83,-2.22 7.04,-8.33 14.9,-15.84 23.36,-22.7 10.8,-8.77 21.65,-17.47 32.58,-26.08 5.6,-4.41 10.17,-9.7 14.19,-15.5 0.99,-1.43 1.84,-3.01 2.5,-4.62 1.83,-4.55 1.63,-9.08 -0.63,-13.44 -0.88,-1.69 -1.92,-3.34 -3.11,-4.82 -3.82,-4.72 -7.73,-9.37 -11.64,-14.02 -0.38,-0.45 -0.98,-0.71 -1.86,-1.34 -0.06,0.99 -0.34,1.69 -0.09,2.07 1.22,1.87 2.61,3.63 3.88,5.47 2.64,3.84 4.89,7.84 5.82,12.51 0.9,4.47 0.07,8.57 -2.14,12.46 -1.84,3.24 -4.32,5.96 -7.23,8.25 -5.78,4.55 -11.5,9.19 -17.49,13.45 -16.68,11.86 -33.48,23.54 -50.22,35.32 -3.53,2.48 -6.95,5.12 -10.5,7.58 -4.93,3.42 -8.88,7.8 -12.4,12.59 -4.88,6.64 -5.82,13.7 -1.89,21.14 2.91,5.51 5.69,11.1 8.81,16.49 7.32,12.64 12.78,26.1 17.79,39.77 1.37,3.74 1.27,7.52 0.27,11.32 -0.8,3.03 -2.69,5.08 -5.67,5.96 -1.67,0.5 -3.43,0.92 -5.16,0.94 -10.39,0.07 -20.79,0.03 -31.19,-0.01 -0.78,-0.03 -1.53,-0.25 -2.52,-0.41 z"
   id="path10" />
	<path
   d="m 2548.87,740.76 c 2.37,6.86 2.17,8.33 -2.76,13.26 -6.9,6.89 -13.96,13.62 -21,20.38 -4.84,4.65 -9.78,9.2 -14.6,13.88 -1.94,1.89 -3.82,3.89 -5.46,6.04 -5.08,6.67 -5.94,13.96 -2.71,21.7 0.61,1.47 1.37,2.89 2.14,4.29 4.78,8.68 9.54,17.37 14.37,26.02 3.12,5.59 6.14,11.21 8.48,17.18 2.65,6.74 4.36,13.68 4.79,20.93 0.31,5.23 -0.6,6.42 -5.71,6.44 -12.8,0.06 -25.59,0.01 -38.39,-0.02 -1.25,0 -2.5,-0.2 -4.01,-0.32 -0.09,-1.3 -0.26,-2.38 -0.22,-3.44 0.41,-9.63 -1.67,-18.78 -5.77,-27.42 -2.87,-6.05 -6.08,-11.97 -9.51,-17.73 -4.59,-7.7 -8.8,-15.58 -12.73,-23.63 -1.27,-2.6 -2.35,-5.25 -2.71,-8.14 -0.71,-5.68 0.78,-10.81 4.08,-15.38 1.96,-2.72 4.17,-5.26 6.32,-7.84 2.46,-2.95 4.97,-5.85 7.47,-8.76 2.43,-2.84 4,-6.1 4.94,-9.92 -4.4,-2.5 -9.15,-3.62 -14.12,-3.92 -5.22,-0.32 -10.19,0.86 -14.88,3.05 -2.6,1.21 -5.14,2.62 -7.51,4.23 -8.9,6.05 -17.04,12.98 -24.11,21.12 -1.46,1.68 -2.8,3.51 -3.88,5.45 -3.01,5.36 -3.31,10.94 -0.79,16.58 0.98,2.19 2.06,4.33 3.19,6.44 2.34,4.37 4.65,8.75 7.14,13.03 7.1,12.22 12.34,25.25 16.98,38.55 1.67,4.79 0.75,9.46 -0.78,14.06 -0.52,1.57 -1.74,2.74 -3.39,3.15 -1.69,0.42 -3.44,0.82 -5.17,0.83 -12,0.06 -23.99,0.04 -35.99,0 -1.23,0 -2.45,-0.26 -3.96,-0.44 0.29,-1.35 0.44,-2.43 0.75,-3.46 2.09,-7.12 1.84,-14.18 -0.39,-21.24 -1.6,-5.06 -3.89,-9.8 -6.44,-14.42 -5.64,-10.21 -11.33,-20.4 -16.98,-30.61 -0.93,-1.68 -1.86,-3.37 -2.54,-5.15 -3.29,-8.6 -1.83,-16.34 4.56,-23 1.88,-1.96 3.99,-3.69 6.05,-5.46 10.72,-9.14 21.99,-17.57 33.53,-25.62 10.23,-7.14 20.6,-14.06 30.9,-21.09 3.57,-2.43 7.1,-4.92 10.67,-7.34 5.37,-3.65 9.66,-8.4 13.46,-13.56 4.26,-5.77 4.72,-12.09 1.69,-18.58 -2.87,-6.14 -6.7,-11.62 -11.49,-16.43 -8.7,-8.72 -17.89,-16.92 -27.27,-24.9 -3.54,-3.01 -6.87,-6.22 -9.81,-9.83 -6.45,-7.92 -9.99,-16.99 -11.06,-27.12 -0.71,-6.67 -1.7,-13.31 -2.56,-19.97 -0.14,-1.11 -0.34,-2.22 -0.33,-3.33 0.02,-1.93 0.94,-2.99 2.81,-3.26 1.1,-0.16 2.23,-0.17 3.35,-0.15 14.71,0.19 29.43,0.24 44.13,0.65 13.74,0.38 27.5,0.82 41.21,1.83 14.87,1.1 27.25,7.69 36.96,19 2.49,2.9 4.8,6.03 6.66,9.36 6.09,10.86 13.94,20.26 23.04,28.67 4.81,4.45 9.81,8.69 14.67,13.1 4.98,4.51 10.01,8.96 14.77,13.69 2.93,2.92 5.57,6.18 8,9.53 1.58,2.17 2.8,4.67 3.75,7.19 2.21,5.88 1.07,11.32 -2.82,16.2 -2.21,2.78 -4.91,5.02 -7.84,7 -4.53,3.04 -9.35,5.55 -14.37,7.66 -6.78,2.85 -13.61,5.55 -20.42,8.32 -2.01,0.85 -4.06,1.71 -6.38,2.67 z m -39.21,-18.82 c 0.53,0.13 0.98,0.36 1.43,0.35 4.16,-0.13 8.32,-0.15 12.46,-0.49 5.73,-0.47 11.48,-0.88 17.02,-2.63 3.38,-1.07 6.6,-2.47 9.26,-4.88 4,-3.61 5.64,-7.99 4.31,-13.37 -1.02,-4.15 -3.1,-7.7 -5.84,-10.88 -2.71,-3.15 -5.53,-6.21 -8.44,-9.17 -13.05,-13.29 -27.77,-24.53 -43.07,-35.07 -6.29,-4.33 -13.11,-6.56 -20.7,-6.33 -5.59,0.16 -11.17,0.52 -16.76,0.84 -0.69,0.04 -1.64,-0.25 -2.06,1.05 0.56,0.79 1.15,1.71 1.81,2.57 4.3,5.58 8.96,10.84 14.1,15.67 4.89,4.6 9.85,9.13 14.7,13.77 5.54,5.3 11.09,10.61 16.45,16.09 2.21,2.27 4.21,4.84 5.85,7.55 4.11,6.79 4.52,13.84 0.71,20.97 -0.45,0.84 -0.94,1.68 -1.29,2.56 -0.14,0.39 0.03,0.9 0.06,1.4 z"
   id="path12" />
	<path
   d="m 814.74,890.91 c 0.69,-2.38 1.22,-4.04 1.64,-5.73 1.48,-6.04 1.25,-12.03 -0.41,-18.01 -1.34,-4.81 -3.31,-9.34 -5.75,-13.66 -3.37,-5.99 -6.89,-11.9 -10.25,-17.89 -2.66,-4.74 -5.26,-9.51 -7.76,-14.33 -1.7,-3.27 -2.96,-6.7 -3.79,-10.32 -1.25,-5.49 -0.27,-10.54 2.92,-15.05 1.83,-2.59 3.92,-5.1 6.31,-7.17 5.19,-4.49 10.55,-8.83 16.04,-12.95 6.77,-5.09 13.76,-9.89 20.64,-14.84 0.48,-0.35 0.87,-0.83 1.64,-1.57 -1.11,-0.32 -1.82,-0.66 -2.54,-0.7 -1.91,-0.1 -3.84,-0.09 -5.76,-0.09 -10.08,0 -20.16,0.11 -30.23,-0.02 -4.83,-0.06 -9,1.16 -12.94,4.09 -7.05,5.24 -14.44,10.05 -21.55,15.22 -4.39,3.19 -8.66,6.59 -12.75,10.16 -2.51,2.19 -4.79,4.72 -6.81,7.37 -3.73,4.88 -4.62,10.51 -3.05,16.38 0.91,3.37 2.11,6.73 3.69,9.84 2.89,5.69 6.06,11.26 9.3,16.77 5.03,8.56 9.6,17.31 13.07,26.65 2.12,5.69 2.89,11.43 2.11,17.4 -0.17,1.26 -0.37,2.53 -0.73,3.75 -0.8,2.73 -2.73,4.24 -5.5,4.68 -0.94,0.15 -1.91,0.17 -2.87,0.16 -12.32,-0.03 -24.63,-0.07 -36.95,-0.13 -1.08,-0.01 -2.16,-0.17 -3.48,-0.28 0.26,-1.14 0.41,-2.07 0.7,-2.96 2.6,-8.1 1.96,-16.07 -0.87,-23.98 -1.9,-5.29 -4.53,-10.22 -7.24,-15.12 -5.26,-9.51 -10.53,-19.02 -15.75,-28.55 -0.92,-1.68 -1.78,-3.41 -2.46,-5.19 -2.95,-7.74 -1.55,-14.76 3.77,-21.01 1.14,-1.34 2.45,-2.53 3.71,-3.75 9.02,-8.66 18.67,-16.55 29.06,-23.51 13.81,-9.26 27.66,-18.47 41.55,-27.61 7.28,-4.79 13.6,-10.61 19.33,-17.13 0.42,-0.48 0.86,-0.95 1.27,-1.44 5.14,-6.25 5.87,-12.94 2.07,-20.06 -2.88,-5.38 -6.41,-10.33 -10.44,-14.9 -7.22,-8.17 -15.18,-15.54 -23.85,-22.17 -3.29,-2.52 -6.5,-5.21 -9.39,-8.17 -9.25,-9.48 -14.34,-21.07 -16.23,-34.05 -0.99,-6.79 -1.48,-13.66 -2.19,-20.49 -0.05,-0.48 -0.09,-0.96 -0.07,-1.43 0.05,-1.75 0.83,-2.72 2.47,-3.02 0.78,-0.14 1.59,-0.18 2.38,-0.18 11.99,0.05 23.99,0.2 35.98,0.14 3.82,-0.02 6.18,1.92 6.85,5.89 0.83,4.88 1.64,9.77 2.39,14.67 0.63,4.11 1.2,8.22 1.73,12.34 1.2,9.46 5.58,17.26 12.49,23.67 5.4,5 11.03,9.74 16.41,14.76 6.31,5.89 12.54,11.87 18.65,17.97 2.59,2.59 4.9,5.49 7.12,8.41 4.12,5.44 6.09,11.55 5.1,18.44 -0.11,0.79 -0.12,1.58 -0.2,2.67 1.04,0.29 2.04,0.69 3.07,0.84 1.1,0.16 2.23,0.12 3.35,0.13 11.83,0.06 23.66,0.12 35.49,0.18 0.16,0 0.32,0.01 0.48,0 5.32,-0.14 6.61,-1.84 5.9,-7.23 -1.03,-7.85 -4.09,-14.67 -9.42,-20.57 -8.92,-9.88 -18.62,-18.9 -28.94,-27.29 -2.48,-2.01 -4.93,-4.08 -7.21,-6.32 -8.12,-8 -13.06,-17.75 -14.93,-28.92 -1.32,-7.87 -2.14,-15.83 -3.03,-23.77 -0.56,-5 0.71,-6.18 5.91,-6.15 9.44,0.06 18.87,0.11 28.31,0.14 2.24,0.01 4.48,-0.17 6.71,-0.16 4.6,0.03 6.17,1.23 6.84,5.63 1.14,7.58 2.4,15.17 3.06,22.8 1.06,12.27 6.17,22.35 15.26,30.51 2.86,2.56 5.75,5.09 8.68,7.57 8.08,6.82 15.75,14.07 22.93,21.81 3.25,3.51 6.24,7.28 9.19,11.06 2.17,2.79 3.7,5.95 4.61,9.41 1.21,4.59 0.45,8.87 -1.77,12.96 -1.54,2.85 -3.69,5.2 -6.02,7.41 -6.98,6.61 -14.4,12.71 -22.26,18.22 -13.88,9.73 -27.9,19.26 -41.85,28.88 -5.4,3.72 -10.78,7.46 -16.16,11.21 -5.89,4.12 -10.13,9.74 -13.86,15.73 -2.69,4.31 -2.87,9.11 -1.06,13.84 1.02,2.68 2.28,5.28 3.58,7.84 5.37,10.54 10.83,21.03 16.18,31.57 2.32,4.56 4.58,9.15 6.66,13.81 2.48,5.57 3.09,11.38 1.48,17.33 -0.29,1.08 -0.61,2.17 -1.09,3.17 -1.34,2.82 -3.42,4.41 -6.76,4.38 -9.92,-0.07 -19.83,0.02 -29.75,0.05 -3.82,-0.03 -7.65,-0.04 -12.16,-0.04 z"
   id="path14" />
	<path
   d="m 1430.01,595.87 c 5.76,0 11.52,0 17.27,0 0.64,0 1.28,-0.06 1.92,-0.01 3.04,0.24 4.32,1.25 4.86,4.29 0.7,3.93 1.18,7.9 1.77,11.85 0.86,5.85 1.81,11.69 2.59,17.55 1.19,8.95 5.32,16.33 11.83,22.44 3.73,3.5 7.64,6.81 11.38,10.3 7.6,7.09 15.29,14.09 22.64,21.42 3.6,3.59 6.67,7.75 9.72,11.84 2.2,2.95 3.69,6.34 4.34,10.04 0.81,4.61 0.14,9 -2.49,12.85 -1.79,2.61 -3.82,5.2 -6.22,7.23 -6.34,5.37 -12.73,10.72 -19.48,15.55 -13.64,9.78 -27.53,19.22 -41.33,28.78 -5.65,3.92 -11.3,7.83 -16.98,11.71 -5.64,3.85 -10.02,8.93 -14.01,14.35 -3.55,4.81 -4.32,10.36 -2.8,16 2.84,10.5 7.74,19.93 15.65,27.61 9.31,9.05 20.63,12.4 33.33,11.8 1.4,-0.07 2.85,-0.49 4.16,-1.02 2.4,-0.99 3.92,-2.89 4,-5.5 0.06,-2.04 -0.03,-4.21 -0.67,-6.12 -1.32,-3.93 -3.01,-7.73 -4.62,-11.56 -1.49,-3.53 -3.21,-6.97 -4.59,-10.54 -0.86,-2.22 -1.4,-4.57 -1.9,-6.91 -1.11,-5.13 0.1,-9.82 2.96,-14.14 2.14,-3.23 4.76,-6.05 7.77,-8.45 6.01,-4.77 11.96,-9.64 18.23,-14.05 13.61,-9.56 27.43,-18.81 41.1,-28.27 6.31,-4.37 12.58,-8.8 18.67,-13.47 3.16,-2.41 6.01,-5.26 8.76,-8.15 1.63,-1.71 2.97,-3.77 4.13,-5.86 2.79,-5.03 3.11,-10.33 1.11,-15.74 -1.46,-3.94 -3.63,-7.5 -6.35,-10.66 -2.81,-3.27 -5.64,-6.56 -8.8,-9.49 -9.14,-8.49 -18.23,-17.04 -27.73,-25.12 -10.34,-8.79 -15.67,-19.94 -17.39,-33.12 -0.91,-6.97 -1.83,-13.94 -2.74,-20.91 -0.73,-5.58 0.03,-6.49 5.69,-6.52 9.44,-0.04 18.87,0 28.31,-0.02 2.24,0 4.48,-0.22 6.71,-0.11 3.25,0.15 4.69,1.38 5.16,4.58 1.06,7.27 2.34,14.54 2.88,21.86 1,13.69 6.77,24.77 16.97,33.76 8.15,7.19 16.29,14.4 24.3,21.76 5.18,4.76 9.94,9.96 14.17,15.61 2.21,2.96 4.06,6.12 5.19,9.67 1.75,5.52 1.07,10.72 -1.96,15.64 -1.78,2.89 -4.03,5.4 -6.65,7.51 -6.73,5.41 -13.31,11.03 -20.34,16.02 -18.78,13.31 -37.74,26.38 -56.7,39.44 -5.08,3.5 -9.32,7.77 -13.05,12.6 -4.64,6.01 -5.95,12.65 -3.46,19.87 1.14,3.32 2.48,6.57 3.91,9.78 2.8,6.27 5.86,12.43 8.54,18.76 1.49,3.51 2.7,7.19 3.54,10.91 2.15,9.52 -0.43,17.74 -7.64,24.34 -2.22,2.04 -4.71,3.84 -7.28,5.43 -9.25,5.73 -19.44,8.83 -30.13,10.49 -9.37,1.45 -18.81,1.64 -28.23,0.91 -12.77,-0.98 -23.9,-5.67 -32.44,-15.52 -13.2,-15.22 -26.36,-30.48 -39.42,-45.81 -2.05,-2.41 -3.68,-5.22 -5.19,-8.02 -1.74,-3.23 -3.21,-6.61 -4.65,-9.99 -3.35,-7.83 -2.28,-15.01 3.55,-21.31 7.51,-8.11 15.45,-15.75 24.7,-21.92 15.02,-10.03 30.04,-20.08 45.05,-30.14 5.98,-4.01 12.02,-7.93 17.11,-13.09 2.36,-2.39 4.67,-4.83 6.97,-7.27 0.65,-0.7 1.24,-1.47 1.79,-2.25 4.2,-6.05 4.83,-12.46 1.46,-19.02 -1.45,-2.83 -3.27,-5.51 -5.23,-8.02 -8.48,-10.9 -18.12,-20.67 -29.18,-28.99 -0.51,-0.38 -1.03,-0.76 -1.54,-1.14 -13.69,-10.15 -21.5,-23.85 -24.07,-40.55 -1.09,-7.1 -1.63,-14.28 -2.33,-21.44 -0.29,-2.99 0.7,-4.05 3.74,-4.31 0.79,-0.07 1.6,-0.02 2.4,-0.02 5.75,0.01 11.5,0.01 17.26,0 0,0.01 0,0 0,0 z"
   id="path16" />
	<path
   d="m 2210.87,833.71 c 0.35,1.25 0.54,2.32 0.95,3.29 1.86,4.42 3.82,8.79 5.66,13.22 2.03,4.87 3.86,9.83 4.81,15.04 0.98,5.41 1.01,10.81 -0.56,16.14 -0.31,1.07 -0.69,2.13 -1.1,3.17 -1.7,4.3 -4.61,6.57 -9.51,6.47 -10.71,-0.21 -21.43,-0.1 -32.14,-0.15 -1.56,-0.01 -3.12,-0.2 -5.06,-0.33 0.34,-1.04 0.48,-1.8 0.83,-2.45 4.8,-9.15 5.12,-18.69 2.33,-28.41 -1.32,-4.59 -3.07,-9.07 -4.75,-13.56 -3.43,-9.12 -6.96,-18.2 -10.44,-27.31 -0.91,-2.4 -1.55,-4.85 -1.7,-7.44 -0.36,-6.14 1.68,-11.34 6.11,-15.53 8.96,-8.47 18.22,-16.59 28.78,-23.05 9.95,-6.1 19.98,-12.06 29.99,-18.06 7.68,-4.6 15.41,-9.12 23.05,-13.78 8.48,-5.18 16.37,-11.18 23.76,-17.82 1.78,-1.59 3.5,-3.31 4.96,-5.18 5.22,-6.7 5.89,-13.96 2.21,-21.59 -0.76,-1.58 -1.66,-3.11 -2.67,-4.54 -2.03,-2.87 -4.02,-5.8 -6.33,-8.43 -7.08,-8.04 -14.29,-15.95 -21.47,-23.9 -1.93,-2.13 -3.99,-4.15 -5.88,-6.32 -6.62,-7.59 -9.61,-16.37 -9.08,-26.49 0.42,-7.98 0.43,-15.98 0.58,-23.97 0.11,-5.86 1.27,-7.07 7,-7.05 13.75,0.06 27.51,0.13 41.26,0.17 2.72,0.01 5.43,-0.12 8.15,-0.14 1.28,-0.01 2.56,-0.01 3.83,0.13 2.44,0.27 4.15,1.57 4.99,3.9 0.38,1.05 0.69,2.13 1,3.2 2.14,7.36 4.3,14.72 6.4,22.09 3.54,12.47 10.86,22.29 20.94,30.22 9.17,7.22 18.34,14.44 27.48,21.71 3.13,2.49 6.13,5.14 9.23,7.65 5.79,4.7 10.27,10.5 14.21,16.75 3.12,4.95 4.38,10.27 2.32,16.01 -1.05,2.92 -2.8,5.38 -5.06,7.48 -6.56,6.09 -12.9,12.44 -19.76,18.18 -8.46,7.07 -17.31,13.68 -26.06,20.39 -6.09,4.67 -12.3,9.18 -18.46,13.76 -5.57,4.15 -10.16,9.27 -14.21,14.85 -5.57,7.66 -5.96,15.64 -0.78,23.69 2.6,4.03 5.26,8.02 8.07,11.9 10.14,14.01 18.87,28.91 27.61,43.79 2.54,4.33 2.68,9.14 2.36,13.95 -0.16,2.42 -1.57,4.19 -4.06,4.77 -1.55,0.36 -3.14,0.7 -4.71,0.71 -11.83,0.05 -23.67,0.03 -35.51,-0.01 -1.25,0 -2.5,-0.25 -3.99,-0.41 0,-0.94 -0.12,-1.72 0.02,-2.44 1.28,-6.47 0.43,-12.74 -1.85,-18.84 -0.89,-2.39 -1.95,-4.74 -3.16,-6.98 -4.04,-7.47 -8.98,-14.36 -14.1,-21.12 -3.27,-4.32 -7.51,-6.85 -13.03,-7.04 -3.67,-0.13 -7.34,-0.47 -11.01,-0.5 -9.76,-0.07 -19.51,-0.03 -29.27,-0.02 -0.96,0.03 -1.9,0.15 -3.18,0.23 z m 1.54,-41.41 c 2.04,0.12 3.43,0.3 4.81,0.25 6.88,-0.26 13.75,-0.3 20.61,0.29 1.9,0.16 3.85,0.14 5.75,-0.02 5.45,-0.47 10.42,-2.13 13.69,-6.83 1.69,-2.42 3.81,-4.24 6.1,-6 16.87,-12.94 33.8,-25.83 50.54,-38.94 5.78,-4.53 11.16,-9.57 16.55,-14.57 1.96,-1.82 3.66,-4.04 5.06,-6.34 2.8,-4.62 3.22,-9.62 1.47,-14.77 -1.09,-3.22 -2.82,-6.08 -4.87,-8.76 -4.39,-5.75 -9.39,-10.92 -14.95,-15.51 -6.66,-5.5 -13.44,-10.85 -20.18,-16.25 -2,-1.6 -4.01,-3.18 -6.08,-4.68 -0.39,-0.28 -1.07,-0.17 -2.15,-0.31 0.64,1.02 0.9,1.6 1.3,2.04 4.37,4.89 8.85,9.67 13.11,14.65 4.26,4.98 8.34,10.12 12.4,15.26 1.38,1.75 2.61,3.65 3.68,5.61 3.05,5.6 3.09,11.33 0.17,16.99 -0.87,1.69 -1.92,3.35 -3.17,4.78 -4.43,5.06 -9.1,9.89 -14.81,13.57 -6.99,4.5 -14.02,8.94 -21.01,13.44 -20.3,13.07 -40.58,26.16 -60.87,39.25 -2.55,1.64 -4.99,3.41 -7.15,6.85 z"
   id="path18" />
	<path
   d="m 1075.15,638.51 c -1.52,1.13 -3.17,0.79 -4.72,0.83 -3.84,0.1 -7.68,0.1 -11.51,0.11 -18.71,0.01 -37.43,0 -56.14,0 -1.75,0 -3.5,0 -5.7,0 0.37,1.02 0.48,1.79 0.88,2.34 3.36,4.68 6.93,9.17 11.15,13.14 6.77,6.35 13.52,12.7 20.84,18.42 11.02,8.63 16.51,20.07 17.08,33.96 0.12,2.85 0.02,5.71 0.02,8.26 1.46,1.59 2.99,1.17 4.36,1.18 7.52,0.05 15.03,0.01 22.55,0.03 1.56,0 3.12,0.12 4.52,0.17 0.67,1.24 -0.01,1.82 -0.56,2.31 -2.14,1.91 -4.32,3.78 -6.53,5.62 -3.07,2.56 -6.21,5.02 -9.25,7.61 -8.87,7.59 -17.74,15.18 -26.52,22.87 -2.43,2.12 -5.06,3.27 -8.26,3.2 -3.67,-0.08 -7.36,0.07 -11.02,-0.22 -11.06,-0.89 -20.91,2.19 -29.58,8.94 -8.7,6.78 -17.26,13.75 -25.82,20.7 -1.85,1.5 -3.63,3.16 -5.18,4.97 -5.56,6.47 -7.09,13.8 -4.29,21.92 0.62,1.81 1.37,3.59 2.29,5.26 4.24,7.7 8.61,15.33 12.82,23.04 1.73,3.16 4.29,4.57 7.79,4.57 2.4,0 4.8,0.08 7.2,0.08 19.99,0.01 39.99,0.15 59.98,-0.09 5.76,-0.07 9.34,1.95 11.56,7.25 2.22,5.31 4.76,10.48 5.84,16.19 0.87,4.61 0.87,9.22 -0.43,13.77 -1.29,4.53 -3.1,6.01 -7.9,6.03 -8.32,0.05 -16.63,-0.05 -24.95,-0.05 -29.59,-0.01 -59.18,0 -88.77,-0.01 -2.22,0 -4.43,-0.15 -6.94,-0.25 0.1,-1.23 0,-2.17 0.26,-3.01 2.6,-8.29 2.04,-16.47 -1.2,-24.4 -1.99,-4.86 -4.41,-9.57 -6.88,-14.22 -5.53,-10.45 -11.23,-20.81 -16.78,-31.25 -1.04,-1.96 -1.86,-4.07 -2.48,-6.2 -1.59,-5.43 -0.39,-10.44 2.79,-15.01 0.91,-1.31 1.99,-2.5 3.08,-3.67 7.64,-8.23 15.92,-15.72 25.3,-21.96 16.24,-10.8 32.41,-21.71 48.66,-32.5 5.9,-3.92 11.34,-8.35 16.07,-13.59 2.13,-2.35 4.12,-4.93 5.68,-7.68 3.11,-5.51 3.25,-11.32 0.41,-17 -1.21,-2.41 -2.66,-4.76 -4.35,-6.85 -2.71,-3.35 -5.54,-6.65 -8.63,-9.64 -8.74,-8.43 -17.65,-16.7 -26.5,-25.03 -2.44,-2.3 -5,-4.5 -7.35,-6.88 -6.87,-6.95 -10.79,-15.26 -11.88,-25.05 -0.86,-7.78 -2.24,-15.5 -3.36,-23.24 -0.18,-1.26 -0.39,-2.54 -0.36,-3.8 0.04,-1.92 0.88,-3.04 2.71,-3.45 1.55,-0.34 3.16,-0.5 4.74,-0.5 6.72,0.01 13.43,0.15 20.15,0.16 24.15,0.02 48.3,0.02 72.46,0 6.24,-0.01 12.47,-0.13 18.71,-0.18 1.28,-0.01 2.57,-0.04 3.83,0.12 3.21,0.42 4.42,1.6 5.12,4.78 0.17,0.78 0.31,1.57 0.41,2.36 1.54,11.24 3.07,22.48 4.58,33.73 0.07,0.59 0,1.21 0,1.81 z"
   id="path20" />
	<path
   d="m 2584.97,596.75 c 2.98,-0.88 5.36,-0.87 7.74,-0.87 8,0 15.99,0.02 23.99,-0.01 2.88,-0.01 5.75,-0.13 8.63,-0.16 1.6,-0.02 3.21,-0.06 4.79,0.1 2.75,0.27 4.79,1.67 6.01,4.18 0.42,0.86 0.79,1.75 1.16,2.63 3.09,7.37 6.18,14.73 9.26,22.1 4.08,9.78 10.32,18 18.24,24.94 3.36,2.95 6.95,5.64 10.53,8.31 13.98,10.4 27.99,20.76 42.01,31.11 3.11,2.3 5.75,5.06 8.28,7.96 1.02,1.17 2.14,2.26 3.69,3.88 0.12,-1.24 0.32,-1.81 0.2,-2.32 -1.02,-4.39 -2.65,-8.5 -5.31,-12.21 -6.62,-9.23 -13.25,-18.44 -20.94,-26.83 -2.93,-3.19 -5.47,-6.66 -7.47,-10.53 -3.59,-6.94 -4.48,-14.28 -3.35,-21.9 1.2,-8.06 2.55,-16.09 3.83,-24.14 0.05,-0.32 0.12,-0.63 0.18,-0.94 0.94,-5.22 2.37,-6.4 7.71,-6.36 7.99,0.06 15.99,0.13 23.98,0.16 2.4,0.01 4.79,-0.12 7.19,-0.13 1.43,-0.01 2.89,-0.04 4.3,0.19 2.62,0.42 3.59,1.6 3.33,4.33 -0.24,2.53 -0.85,5.03 -1.27,7.55 -1.36,8.19 -2.83,16.37 -4.04,24.58 -1.01,6.9 0.42,13.38 4.41,19.16 2.54,3.68 5.18,7.3 7.86,10.88 4.32,5.75 8.84,11.36 13.01,17.21 2.4,3.36 4.52,6.98 6.35,10.69 1.26,2.54 1.98,5.39 2.62,8.17 1.37,5.97 -0.18,11.39 -3.58,16.36 -2.19,3.2 -5.02,5.78 -8.04,8.17 -9.55,7.55 -19.66,14.28 -30.35,20.11 -6.73,3.68 -13.56,7.17 -20.36,10.74 -16.34,8.57 -31.65,18.69 -45.99,30.28 -2.36,1.91 -4.76,3.81 -6.89,5.96 -2.12,2.14 -4.17,4.44 -5.82,6.96 -2.64,4.02 -3.44,8.5 -2.38,13.31 0.84,3.78 2.11,7.39 3.93,10.77 3.11,5.77 6.18,11.56 9.58,17.16 6.25,10.31 10.94,21.29 14.71,32.71 1.74,5.28 1,10.42 -0.3,15.56 -0.5,1.99 -1.93,3.34 -3.96,3.79 -1.39,0.31 -2.84,0.5 -4.26,0.5 -11.99,0.04 -23.99,0.03 -35.98,0 -1.39,0 -2.77,-0.23 -4.44,-0.38 0.26,-1.24 0.38,-2.16 0.65,-3.04 2.51,-8.29 1.98,-16.47 -1.25,-24.41 -1.86,-4.58 -4.07,-9.03 -6.4,-13.39 -5.42,-10.15 -11.02,-20.2 -16.52,-30.31 -0.91,-1.68 -1.81,-3.4 -2.45,-5.19 -2.67,-7.42 -1.62,-14.23 3.92,-19.98 3.21,-3.33 6.68,-6.44 10.23,-9.42 12.99,-10.89 26.11,-21.61 39.07,-32.54 7.21,-6.08 14.27,-12.34 21.23,-18.7 2.69,-2.46 5.03,-5.35 7.34,-8.19 1.84,-2.26 2.93,-4.97 3.49,-7.82 0.76,-3.89 0.13,-7.63 -1.63,-11.18 -1.58,-3.19 -3.65,-6.05 -6.3,-8.39 -5.28,-4.65 -10.55,-9.31 -16.05,-13.68 -7.01,-5.56 -14.23,-10.87 -21.41,-16.22 -2.05,-1.52 -4.18,-2.98 -6.44,-4.16 -14.57,-7.62 -25.67,-18.85 -34.36,-32.64 -6.07,-9.64 -10.76,-19.96 -14.98,-30.51 -0.44,-1.11 -0.57,-2.39 -0.93,-3.96 z"
   id="path22" />
	<path
   d="m 568.38,890.67 c 0.25,-1.23 0.38,-2.32 0.69,-3.34 2.39,-7.79 1.81,-15.44 -0.82,-23.06 -1.88,-5.47 -4.6,-10.53 -7.37,-15.57 -5.38,-9.81 -10.77,-19.6 -16.08,-29.45 -1.13,-2.1 -2.09,-4.33 -2.8,-6.6 -2.02,-6.44 -0.68,-12.33 3.48,-17.56 1.28,-1.62 2.84,-3.03 4.31,-4.5 9.19,-9.18 19.21,-17.35 30.11,-24.44 10.32,-6.71 20.7,-13.32 30.96,-20.12 10.15,-6.73 19.62,-14.33 28.13,-23.08 1.66,-1.71 3.24,-3.57 4.45,-5.61 3.19,-5.32 3.39,-10.92 0.61,-16.48 -0.99,-1.98 -2.21,-3.93 -3.65,-5.6 -4.28,-4.96 -8.6,-9.89 -13.14,-14.61 -11.07,-11.53 -22.28,-22.93 -33.43,-34.39 -0.89,-0.92 -1.87,-1.76 -2.68,-2.75 -2.42,-2.92 -5.41,-4.36 -9.26,-4.03 -1.43,0.12 -2.88,-0.03 -4.31,-0.03 -10.07,0.01 -20.15,0.03 -30.22,0.06 -6.82,0.02 -8.93,-1.77 -9.92,-8.31 -1.41,-9.32 -2.87,-18.63 -4.31,-27.94 -0.12,-0.79 -0.35,-1.57 -0.41,-2.36 -0.23,-3.03 0.82,-4.59 3.92,-4.87 3.81,-0.34 7.66,-0.27 11.49,-0.3 2.56,-0.02 5.11,0.15 7.67,0.15 36.46,0.01 72.92,0.01 109.38,0 2.4,0 4.8,-0.21 7.19,-0.05 3.24,0.22 4.6,1.47 5.06,4.7 1.72,12.02 3.36,24.05 5.02,36.08 0.06,0.47 0.01,0.95 0.01,1.49 -1.14,1.2 -2.66,0.74 -4.02,0.74 -12.15,0.04 -24.31,-0.01 -36.46,0.05 -1.85,0.01 -4.41,-0.93 -5.39,0.76 -1.27,2.18 1.44,3.53 2.53,5.13 2.97,4.39 6.67,8.16 10.64,11.66 4.19,3.71 8.4,7.39 12.58,11.12 6.81,6.07 13.26,12.51 19.27,19.37 2.42,2.76 4.69,5.66 6.89,8.61 1.24,1.66 2.32,3.46 3.23,5.31 3.18,6.49 2.59,12.73 -1.76,18.48 -1.63,2.15 -3.55,4.12 -5.51,5.99 -6.47,6.21 -13.36,11.94 -20.71,17.07 -10.61,7.41 -21.36,14.63 -32.08,21.89 -6.75,4.57 -13.57,9.04 -20.33,13.59 -6.69,4.5 -12.32,10.19 -17.47,16.32 -5.58,6.63 -6.55,14.07 -2.88,21.93 2.23,4.77 4.69,9.44 7.22,14.07 4.13,7.57 8.43,15.06 12.61,22.61 2.79,5.04 5.15,10.26 6.48,15.92 1.48,6.28 0.7,12.37 -1.02,18.45 -0.71,2.52 -2.51,3.59 -5,3.64 -2.72,0.06 -5.44,0.05 -8.15,0.06 -10.55,0.02 -21.11,0.03 -31.66,0.03 -0.96,0 -1.9,-0.14 -3.09,-0.23 z"
   id="path24" />
	<path
   d="m 1216.76,890.64 c 0.47,-1.92 0.74,-3.14 1.05,-4.34 1.87,-7.15 1.75,-14.28 -0.74,-21.23 -1.4,-3.89 -3.07,-7.73 -5.06,-11.35 -3.91,-7.15 -8.26,-14.05 -12.16,-21.21 -2.98,-5.46 -5.73,-11.07 -8.23,-16.77 -3.84,-8.76 -2.21,-16.54 4.64,-23.21 10.34,-10.05 21.44,-19.2 33.4,-27.26 10.87,-7.32 21.86,-14.47 32.78,-21.71 3.33,-2.21 6.65,-4.43 9.93,-6.71 5.95,-4.12 11.15,-9.08 15.9,-14.51 2.89,-3.3 4.93,-7.06 5.46,-11.51 0.6,-4.98 -0.49,-9.63 -3.3,-13.68 -2.91,-4.19 -6.02,-8.28 -9.41,-12.09 -7.68,-8.61 -16.23,-16.31 -25.22,-23.53 -2.37,-1.9 -4.74,-3.81 -6.93,-5.9 -9.8,-9.32 -14.97,-20.92 -16.65,-34.2 -0.81,-6.34 -1.59,-12.68 -2.38,-19.02 -0.08,-0.63 -0.23,-1.26 -0.24,-1.9 -0.06,-2.72 1.12,-4.18 3.81,-4.64 0.94,-0.16 1.91,-0.19 2.87,-0.16 11.19,0.34 22.37,0.35 33.56,-0.01 0.48,-0.02 0.96,-0.02 1.44,0.01 4.19,0.23 5.76,1.47 6.49,5.59 0.59,3.3 0.89,6.65 1.36,9.97 0.91,6.33 1.87,12.64 2.77,18.97 1.11,7.88 4.55,14.63 10.15,20.19 3.85,3.83 8.03,7.32 12.02,11.01 6.45,5.97 12.96,11.88 19.28,18 5.06,4.9 9.69,10.21 13.66,16.05 1.51,2.23 2.89,4.62 3.89,7.12 2.53,6.34 1.44,12.26 -2.87,17.5 -1.51,1.84 -3.27,3.52 -5.11,5.05 -5.77,4.81 -11.54,9.63 -17.46,14.25 -13.51,10.51 -27.66,20.12 -42.02,29.43 -4.56,2.96 -9.01,6.08 -13.51,9.13 -7.09,4.8 -12.94,10.92 -18.28,17.53 -4.87,6.03 -5.84,12.75 -2.27,19.72 4.96,9.66 10.22,19.17 15.28,28.78 1.25,2.38 3.18,3.52 5.73,3.7 1.91,0.14 3.83,0.14 5.75,0.14 19.83,-0.01 39.65,-0.03 59.48,-0.05 0.96,0 1.92,-0.01 2.87,0.09 2.87,0.3 5.25,1.55 6.64,4.14 3.86,7.21 7.19,14.62 8.08,22.9 0.36,3.4 -0.13,6.72 -0.95,9.97 -1.13,4.46 -3.23,6.03 -7.89,6.1 -4.64,0.07 -9.27,0.02 -13.91,0.02 -32.14,-0.03 -64.28,-0.05 -96.42,-0.09 -2.22,-0.02 -4.43,-0.18 -7.28,-0.28 z"
   id="path26" />
	<path
   d="m 1858.29,890.62 c 0.64,-2.78 1.23,-5.25 1.79,-7.72 1.16,-5.12 0.56,-10.17 -0.71,-15.18 -1.27,-4.99 -3.34,-9.67 -5.83,-14.15 -3.04,-5.44 -6.25,-10.79 -9.28,-16.24 -3.26,-5.87 -6.48,-11.75 -9.53,-17.73 -1.3,-2.55 -2.29,-5.29 -3.08,-8.04 -1.49,-5.18 -0.9,-10.22 2.31,-14.63 2.06,-2.83 4.38,-5.51 6.89,-7.95 6.21,-6.03 13.12,-11.23 20.22,-16.15 16.16,-11.21 32.36,-22.37 48.54,-33.55 2.89,-2 5.76,-4.05 8.68,-6 4.43,-2.97 8.09,-6.76 11.48,-10.82 0.92,-1.1 1.74,-2.3 2.51,-3.51 4.46,-7.03 4.5,-14.14 0.19,-21.24 -0.99,-1.63 -2.1,-3.23 -3.34,-4.68 -2.7,-3.16 -5.39,-6.34 -8.31,-9.29 -5.4,-5.46 -10.88,-10.83 -16.46,-16.1 -3.02,-2.85 -6.21,-5.53 -9.5,-8.07 -11.59,-8.94 -18.38,-20.69 -20.6,-35.07 -1.15,-7.42 -2.02,-14.88 -2.87,-22.34 -0.61,-5.34 0.51,-6.34 6.08,-6.33 11.36,0.02 22.71,-0.05 34.07,-0.08 0.16,0 0.32,-0.01 0.48,-0.02 4.95,-0.05 6.35,0.99 7.08,5.8 0.87,5.69 1.54,11.4 2.29,17.11 0.45,3.49 0.71,7.01 1.34,10.46 1.85,10.12 6.98,18.45 14.44,25.4 2.81,2.61 5.76,5.08 8.69,7.56 7.82,6.62 15.38,13.52 22.37,21.01 3.49,3.73 6.81,7.65 9.85,11.75 1.78,2.4 3.17,5.2 4.21,8.02 2.07,5.59 1.38,11.09 -2,16.01 -1.7,2.48 -3.73,4.85 -6.02,6.77 -6.37,5.34 -12.81,10.62 -19.47,15.58 -18.86,14.04 -38.38,27.15 -57.85,40.32 -4.69,3.17 -8.67,7.05 -12.33,11.31 -5.74,6.67 -7.07,14.18 -4.04,22.38 1.33,3.59 2.87,7.12 4.66,10.5 2.54,4.8 5.36,9.45 8.12,14.14 4.3,7.31 8.23,14.8 11.6,22.59 2.74,6.33 3.64,12.87 3.05,19.68 -0.08,0.95 -0.17,1.92 -0.35,2.85 -0.62,3.17 -2.52,5.1 -5.73,5.65 -1.1,0.19 -2.22,0.3 -3.34,0.3 -12.8,0.02 -25.59,0.01 -38.39,0 -0.5,-0.03 -0.97,-0.16 -1.91,-0.3 z"
   id="path28" />
	<path
   class="st0"
   d="m 262.97,732.94 c -0.26,-2.95 -0.52,-5.92 -0.8,-9.07 -4.65,-1.3 -9.32,0.05 -13.67,-0.85 -0.4,-1.07 0.31,-1.37 0.77,-1.71 2.86,-2.05 5.79,-4 8.62,-6.08 8.52,-6.23 15.31,-13.87 20.04,-23.45 9.8,-19.84 26.3,-30.35 47.94,-33.07 8.64,-1.09 16.87,-3.5 25,-6.43 2.88,-1.04 4.41,-3.13 4.94,-5.96 0.44,-2.36 0.52,-4.77 -0.56,-7.05 -1.18,-2.49 -2.56,-3.4 -5.32,-3.08 -4.13,0.48 -8.22,1.22 -12.36,1.65 -5.08,0.52 -10.18,1.01 -15.28,1.18 -7.06,0.23 -14.02,0.88 -20.82,2.95 -12.15,3.71 -22.06,10.72 -30.1,20.44 -2.14,2.58 -4.07,5.34 -6.01,8.08 -5.27,7.44 -10.62,14.82 -16.68,21.64 -5.22,5.87 -10.86,11.3 -17.22,15.93 -0.74,0.54 -1.55,0.96 -2.68,1.64 -0.24,-0.91 -0.51,-1.46 -0.51,-2.02 -0.02,-4.16 0.08,-8.31 -0.01,-12.47 -0.06,-2.91 0.97,-5.28 2.92,-7.36 2.08,-2.21 4.13,-4.46 6.2,-6.68 7.86,-8.41 15.75,-16.79 23.6,-25.22 9.66,-10.38 21.29,-17.28 35.33,-19.82 6.15,-1.11 12.38,-1.77 18.62,-1 8.82,1.09 17.56,0.43 26.3,-0.73 1.9,-0.25 3.81,-0.5 5.69,-0.84 3.63,-0.65 6.05,-2.7 7.1,-6.3 0.71,-2.46 1.19,-4.92 0.87,-7.77 -2.75,-0.45 -5.17,0.45 -7.54,1.14 -5.94,1.72 -11.98,2 -18.06,1.29 -4.12,-0.48 -8.21,-1.26 -12.29,-2.04 -8.01,-1.53 -16,-3.05 -24.14,-3.82 -7.23,-0.68 -14.36,-0.33 -21.47,1.04 -0.78,0.15 -1.57,0.27 -2.37,0.35 -0.3,0.03 -0.62,-0.1 -0.93,-0.16 -0.01,-0.16 -0.09,-0.36 -0.02,-0.46 5.36,-8.14 14.74,-12.15 24.03,-10.04 7.16,1.63 14.23,3.66 21.39,5.3 7.79,1.78 15.59,3.5 23.66,3.52 6.31,0.01 12.4,-1.01 18.32,-3.17 3.38,-1.23 6.27,-3.1 8.6,-5.87 1.33,-1.58 2.79,-3.09 4.36,-4.43 3.18,-2.7 6.8,-3.45 10.74,-1.83 1.47,0.61 2.93,1.28 4.32,2.07 16.21,9.18 29.06,21.81 38.92,37.58 2.11,3.37 2.15,6.44 0.31,9.89 -6.87,12.82 -13.63,25.69 -20.43,38.55 -3.89,7.37 -8.41,14.3 -13.62,20.83 -12.27,15.41 -18.52,33 -18.61,52.77 -0.04,7.87 0.74,15.63 2.23,23.34 2.83,14.7 1.11,28.94 -4.38,42.8 -2.6,6.56 -5.82,12.8 -9.44,18.84 -2.1,3.5 -3.5,4.2 -8.45,4.42 -0.12,-1.07 -0.35,-2.16 -0.35,-3.24 -0.03,-11.35 0.01,-22.7 -0.04,-34.06 -0.01,-2.5 0.52,-4.59 2.35,-6.51 4.23,-4.45 6.2,-9.96 6.91,-15.99 0.87,-7.33 0.4,-14.69 0.47,-22.03 0.06,-6.87 0.07,-13.76 0.65,-20.6 1,-11.82 5.91,-22.13 13.31,-31.3 3.53,-4.37 7.5,-8.29 11.64,-12.07 9.82,-8.98 17.39,-19.56 22.35,-31.95 0.83,-2.07 1.45,-4.23 2.07,-6.37 0.2,-0.71 0.11,-1.5 0.18,-2.65 -9.17,2.47 -17.32,5.72 -22.79,13.55 -2.88,4.12 -6.76,7.22 -10.78,10.14 -7.02,5.09 -13.44,10.84 -19.01,17.5 -10.85,12.97 -17.27,27.85 -19.53,44.61 -0.9,6.7 -0.83,13.39 -0.77,20.1 0.05,5.75 0.15,11.51 0.02,17.26 -0.12,5.3 -1.13,10.48 -2.76,15.52 -0.29,0.91 -0.61,1.82 -0.98,2.7 -0.97,2.37 -2.82,3.31 -5.31,3.27 -3.68,-0.06 -7.36,-0.05 -11.03,-0.07 -2.38,-0.01 -4.76,-0.03 -7.43,-0.05 0.14,-4.32 0.47,-8.32 2.47,-11.77 5.53,-9.55 8.44,-19.96 10.88,-30.59 3.44,-14.99 8.33,-29.5 14.51,-43.59 3.67,-8.37 8.9,-15.55 15.92,-21.32 4.44,-3.64 9.13,-7.02 13.92,-10.18 7.83,-5.16 14.64,-11.35 20.31,-18.81 0.76,-1 1.38,-2.09 2.16,-3.28 -3.98,-1.59 -7.87,-2.46 -11.81,-3.02 -3.31,-0.47 -6.43,0.39 -9.04,2.43 -4.08,3.2 -8.68,5.32 -13.4,7.35 -19.38,8.31 -32.75,22.48 -40.26,42.11 -1.88,4.91 -3.21,10.04 -4.6,15.11 -2.2,8.01 -4.23,16.06 -6.36,24.09 -0.24,0.92 -0.57,1.84 -0.98,2.7 -0.59,1.24 -1.63,1.96 -3.01,2.07 -0.79,0.07 -1.6,0.06 -2.39,0.05 -4.1,-0.05 -8.21,-0.11 -12.74,-0.17 0.42,-1.15 0.62,-1.88 0.93,-2.56 2.74,-5.95 5.66,-11.83 8.22,-17.85 2.06,-4.84 3.87,-9.8 5.51,-14.8 2.29,-7.01 4.93,-13.84 8.75,-20.18 8.07,-13.38 19.55,-22.74 34.13,-28.1 8.02,-2.95 15.39,-7.03 22.77,-11.18 0.42,-0.23 0.84,-0.46 1.23,-0.74 2.49,-1.74 2.9,-3.62 1.1,-6.1 -3.68,-5.05 -8.36,-7.63 -14.98,-5.31 -5,1.75 -10.11,2.96 -15.26,4.09 -18.94,4.13 -34.08,14.09 -45.49,29.74 -4.73,6.49 -8.47,13.53 -11.76,20.84 -2.69,5.97 -5.58,11.85 -8.41,17.76 -0.55,1.15 -1.15,2.31 -1.93,3.3 -1.65,2.11 -3.75,2.85 -6.61,1.69 z"
   id="path30" />
	<path
   class="st0"
   d="m 427.72,656.89 c 0.29,6.59 1.09,12.82 -0.81,19.07 -2.98,9.8 -6.45,19.4 -10.91,28.64 -4.39,9.08 -8.25,18.36 -10.51,28.24 -3.91,17.08 -3.47,33.89 2.77,50.45 4.47,11.89 6.95,24.29 7.99,36.91 1.29,15.61 2.13,31.26 3.15,46.89 0.3,4.63 0.57,9.25 0.81,13.88 0.08,1.57 0.01,3.14 0.01,4.97 -4.68,0.89 -9.13,0.38 -13.54,0.43 -4.26,0.05 -8.55,0.28 -13.09,-0.26 -0.37,-4.1 -0.16,-7.92 -0.19,-11.71 -0.04,-3.68 0.05,-7.36 -0.02,-11.03 -0.07,-3.8 0.36,-7.63 -0.36,-11.52 -1.68,-0.26 -3.23,-0.5 -4.93,-0.76 0,-1.1 -0.12,-2.02 0.02,-2.9 0.96,-6.16 2.17,-12.28 2.89,-18.47 0.63,-5.39 1.15,-10.85 0.96,-16.26 -0.31,-8.62 -1.05,-17.23 -1.98,-25.81 -0.91,-8.43 -1.74,-16.84 -1.66,-25.34 0.18,-20.05 6.07,-38.02 18.96,-53.58 5.01,-6.05 9.32,-12.58 12.66,-19.73 3.79,-8.09 5.28,-16.71 6.05,-25.52 0.17,-1.9 0.49,-3.8 0.79,-5.68 0.03,-0.22 0.39,-0.39 0.94,-0.91 z"
   id="path32" />
	<path
   class="st0"
   d="m 336.81,821.24 c -1.27,1.46 -2.34,2.79 -3.52,4.03 -13.75,14.5 -27.54,28.97 -41.27,43.48 -2.96,3.13 -5.91,6.31 -8.58,9.69 -5.52,7.01 -12.45,9.76 -21.43,9.02 -8.74,-0.72 -17.57,-0.34 -26.36,-0.46 -1.56,-0.02 -3.12,-0.1 -4.56,-0.14 -0.59,-1.19 0.14,-1.74 0.63,-2.29 0.85,-0.96 1.76,-1.85 2.67,-2.76 18,-17.95 36,-35.9 54,-53.85 1.47,-1.47 2.95,-2.93 4.5,-4.31 1.96,-1.75 4.26,-2.84 6.91,-2.98 11.82,-0.63 23.65,-0.67 35.48,-0.16 0.4,0.01 0.78,0.35 1.53,0.73 z"
   id="path34" />
	<path
   class="st0"
   d="m 296.74,774.33 c -2.31,3.19 -66.12,70.52 -70.71,74.68 -1.08,-0.13 -1.12,-0.98 -1.12,-1.76 0,-9.91 0.01,-19.82 0.04,-29.73 0.01,-2.88 0.22,-5.76 0.08,-8.62 -0.15,-2.93 0.79,-5.21 2.89,-7.26 5.71,-5.59 11.31,-11.3 16.96,-16.95 2.6,-2.6 5.24,-5.15 7.83,-7.77 2.01,-2.03 4.36,-3.06 7.28,-3.05 11.83,0.06 23.66,0.02 35.49,0.03 0.27,0.01 0.56,0.19 1.26,0.43 z"
   id="path36" />
	<path
   class="st0"
   d="m 315.8,886.93 c 1.03,-1.36 1.42,-2.02 1.94,-2.54 6.32,-6.3 12.7,-12.55 18.99,-18.9 1.91,-1.93 4.02,-2.92 6.77,-2.9 11.48,0.07 22.97,0.02 34.45,0.05 0.73,0 1.45,0.24 2.08,0.35 0.32,1.27 -0.45,1.74 -0.96,2.28 -5.8,6.15 -11.68,12.22 -17.39,18.45 -2.11,2.3 -4.38,3.31 -7.53,3.27 -11.64,-0.14 -23.29,-0.06 -34.93,-0.06 -0.8,0 -1.59,0 -3.42,0 z"
   id="path38" />
	<path
   class="st0"
   d="m 436.22,774.29 c -9.67,-14.7 -9.56,-40.02 -0.87,-57.86 1.49,0.31 0.83,1.53 0.83,2.29 0.05,13.26 0.04,26.52 0.04,39.79 0,5.25 0,10.51 0,15.78 z"
   id="path40" />
	<path
   class="st0"
   d="m 225.55,734.83 c 5.63,-0.5 19.6,-0.41 23.62,0.15 -0.29,0.6 -0.44,1.2 -0.8,1.59 -6.99,7.43 -14.01,14.85 -21.04,22.25 -0.39,0.41 -0.91,0.71 -1.37,1.06 -0.37,-0.52 -0.68,-0.76 -0.68,-0.99 -0.05,-7.33 -0.07,-14.67 -0.07,-22 0,-0.61 0.19,-1.21 0.34,-2.06 z"
   id="path42" />
	<path
   class="st0"
   d="m 318.15,592.26 c 6.7,1.32 13.36,2.93 20.12,3.87 6.58,0.92 13.25,1.16 19.62,1.68 -11.26,5.17 -31.41,1.28 -39.74,-5.55 z"
   id="path44" />
	<path
   class="st0"
   d="m 2509.66,721.94 c -0.03,-0.5 -0.19,-1.01 -0.04,-1.4 0.35,-0.89 0.84,-1.72 1.29,-2.56 3.81,-7.13 3.4,-14.18 -0.71,-20.97 -1.64,-2.71 -3.64,-5.29 -5.85,-7.55 -5.36,-5.48 -10.91,-10.79 -16.45,-16.09 -4.85,-4.64 -9.81,-9.17 -14.7,-13.77 -5.14,-4.83 -9.8,-10.09 -14.1,-15.67 -0.67,-0.86 -1.26,-1.78 -1.81,-2.57 0.42,-1.29 1.37,-1.01 2.06,-1.05 5.58,-0.32 11.17,-0.68 16.76,-0.84 7.59,-0.22 14.41,2 20.7,6.33 15.31,10.54 30.03,21.77 43.07,35.07 2.91,2.96 5.73,6.03 8.44,9.17 2.73,3.17 4.82,6.73 5.84,10.88 1.32,5.38 -0.32,9.76 -4.31,13.37 -2.66,2.4 -5.88,3.81 -9.26,4.88 -5.54,1.75 -11.29,2.16 -17.02,2.63 -4.14,0.34 -8.3,0.36 -12.46,0.49 -0.47,0.02 -0.93,-0.21 -1.45,-0.35 z"
   id="path46" />
	<path
   class="st0"
   d="m 2212.41,792.3 c 2.16,-3.43 4.6,-5.21 7.15,-6.86 20.29,-13.09 40.57,-26.18 60.87,-39.25 6.99,-4.5 14.02,-8.94 21.01,-13.44 5.7,-3.68 10.38,-8.51 14.81,-13.57 1.25,-1.43 2.3,-3.09 3.17,-4.78 2.92,-5.66 2.89,-11.39 -0.17,-16.99 -1.07,-1.96 -2.29,-3.86 -3.68,-5.61 -4.06,-5.14 -8.14,-10.28 -12.4,-15.26 -4.26,-4.98 -8.74,-9.76 -13.11,-14.65 -0.4,-0.45 -0.66,-1.02 -1.3,-2.04 1.08,0.14 1.76,0.03 2.15,0.31 2.07,1.5 4.08,3.08 6.08,4.68 6.74,5.4 13.52,10.75 20.18,16.25 5.56,4.59 10.56,9.77 14.95,15.51 2.05,2.68 3.78,5.54 4.87,8.76 1.74,5.15 1.33,10.14 -1.47,14.77 -1.39,2.3 -3.09,4.52 -5.06,6.34 -5.39,5 -10.77,10.04 -16.55,14.57 -16.74,13.12 -33.66,26 -50.54,38.94 -2.29,1.76 -4.41,3.58 -6.1,6 -3.27,4.7 -8.24,6.37 -13.69,6.83 -1.91,0.16 -3.85,0.18 -5.75,0.02 -6.87,-0.59 -13.74,-0.55 -20.61,-0.29 -1.38,0.06 -2.77,-0.13 -4.81,-0.24 z"
   id="path48" />
</g>
</svg>
