<?xml version="1.0" standalone="no"?>
<!DOCTYPE svg PUBLIC "-//W3C//DTD SVG 20010904//EN"
 "http://www.w3.org/TR/2001/REC-SVG-20010904/DTD/svg10.dtd">
<svg version="1.0" xmlns="http://www.w3.org/2000/svg"
 width="356.000000pt" height="356.000000pt" viewBox="0 0 356.000000 356.000000"
 preserveAspectRatio="xMidYMid meet">
<metadata>
Created by potrace 1.14, written by Peter Selinger 2001-2017
</metadata>
<g transform="translate(0.000000,356.000000) scale(0.100000,-0.100000)"
fill="#000000" stroke="none">
<path d="M1575 3545 c-44 -7 -100 -18 -125 -25 -25 -7 -55 -14 -67 -16 -83
-15 -293 -113 -408 -190 -97 -66 -256 -221 -300 -293 -5 -9 -20 -30 -31 -46
-58 -81 -118 -217 -156 -352 -22 -78 -22 -80 -25 -1315 l-4 -1237 30 -33 29
-33 1249 -3 c888 -2 1256 1 1275 9 14 6 36 21 47 33 l22 23 -4 1229 c-1 676
-6 1243 -10 1259 -4 17 -10 43 -14 60 -21 104 -84 248 -157 360 -48 73 -74
106 -131 168 -67 73 -258 217 -327 247 -12 5 -30 14 -38 18 -90 51 -244 103
-375 126 -16 3 -41 8 -55 12 -53 12 -347 12 -425 -1z"/>
</g>
</svg>
